<svg width="251" height="250" viewBox="0 0 251 250" fill="none" xmlns="http://www.w3.org/2000/svg">
<g clip-path="url(#clip0_1887_30785)">
<path d="M38.8126 109.85L36.1516 118.619L38.4619 119.32L41.1229 110.551L38.8126 109.85Z" fill="#DCDDE0"/>
<path d="M37.1744 109.873L34.791 110.258L36.2515 119.305L38.6349 118.92L37.1744 109.873Z" fill="#858FA9"/>
<path d="M42.1786 120.378C42.1786 120.235 41.9143 120.293 41.7715 120.293C40.7786 120.293 38.4072 120.335 37.9929 121.528C37.3286 123.421 36.7072 125.343 36.0929 127.243C35.9786 127.564 35.8643 127.885 35.7429 128.2H35.7929C35.8858 128.285 35.9358 128.3 35.9643 128.293C35.9592 128.323 35.9592 128.355 35.9643 128.385C35.9637 128.442 35.9815 128.497 36.0151 128.542C36.0486 128.587 36.096 128.62 36.1501 128.635C36.5715 128.7 36.8643 129.021 37.3215 129.035C37.7414 129.063 38.163 129.044 38.5786 128.978C38.9633 128.907 39.3285 128.755 39.6499 128.532C39.9713 128.31 40.2417 128.021 40.4429 127.685C41.0319 126.535 41.4414 125.302 41.6572 124.028C42.0775 122.86 42.2549 121.618 42.1786 120.378Z" fill="#414355"/>
<path d="M42.5785 115.093C42.2785 113.664 40.6999 113.471 39.5214 113.664C38.0928 113.907 36.5571 114.757 36.1071 116.214C35.6571 117.671 36.2285 118.043 37.4142 117.5C37.4142 117.843 37.5142 118.4 38.3999 118.121C38.3999 118.364 38.2142 118.836 38.9642 118.836C39.1071 118.836 38.6785 119.836 38.5928 119.986C38.4071 120.336 38.2571 120.864 37.9642 121.543C37.7785 122.071 37.7571 122.307 38.0142 122.393C39.6857 122.986 41.0571 122.764 42.1571 121.614C42.3735 120.539 42.5166 119.451 42.5857 118.357C42.7462 117.275 42.7438 116.174 42.5785 115.093Z" fill="#FCC18B"/>
<path d="M40.9285 117.858C40.6714 117.972 40.421 118.101 40.1785 118.243C39.9078 118.391 39.626 118.518 39.3357 118.622C38.8857 118.786 38.2571 118.622 38.6857 118.065L38.7499 117.986C38.9762 117.805 39.1909 117.609 39.3928 117.401C39.6682 117.189 39.9091 116.936 40.1071 116.651C40.2071 116.493 39.9928 116.365 39.8714 116.465C39.4142 116.851 39.0071 117.293 38.5428 117.672C38.0785 118.051 37.2714 118.343 37.6499 117.379C38.0139 116.971 38.3436 116.534 38.6357 116.072C38.7017 115.988 38.7614 115.9 38.8142 115.808C38.9357 115.579 38.6285 115.329 38.4428 115.522C38.183 115.839 37.9444 116.173 37.7285 116.522C37.4844 116.918 37.1808 117.275 36.8285 117.579C36.4785 117.786 36.1142 117.743 36.0357 117.179C36.0516 116.955 36.085 116.733 36.1357 116.515C36.1387 116.496 36.1346 116.476 36.1243 116.46C36.114 116.444 36.0981 116.432 36.0797 116.427C36.0612 116.422 36.0414 116.423 36.0241 116.432C36.0068 116.44 35.9931 116.454 35.9857 116.472C35.8071 117.129 35.6571 117.901 36.4999 118.001C36.6408 118.011 36.7824 117.993 36.9162 117.948C37.05 117.902 37.1732 117.83 37.2785 117.736C37.1785 118.136 37.2785 118.451 37.6928 118.451C37.8519 118.448 38.0092 118.417 38.1571 118.358C38.1451 118.41 38.144 118.464 38.1538 118.517C38.1636 118.57 38.1842 118.62 38.2142 118.665C38.8714 119.579 40.3571 118.551 41.0714 118.186C41.2142 118.108 41.0999 117.815 40.9285 117.858Z" fill="#414355"/>
<path d="M57.1411 114.676L54.4801 123.445L56.7904 124.146L59.4514 115.377L57.1411 114.676Z" fill="#DCDDE0"/>
<path d="M79.3215 116.598L76.6605 125.367L78.9708 126.068L81.6318 117.299L79.3215 116.598Z" fill="#DCDDE0"/>
<path d="M177.221 116.125L175.472 125.121L177.842 125.582L179.591 116.586L177.221 116.125Z" fill="#DCDDE0"/>
<path d="M129.349 115.181L127.865 124.225L130.247 124.616L131.732 115.572L129.349 115.181Z" fill="#DCDDE0"/>
<path d="M205.186 113.782L202.79 114.072L203.891 123.17L206.287 122.88L205.186 113.782Z" fill="#DCDDE0"/>
<path d="M224.745 111.788L222.418 112.43L224.855 121.264L227.182 120.622L224.745 111.788Z" fill="#DCDDE0"/>
<path d="M7.84286 109.999C6.94575 111.154 6.52182 112.607 6.65714 114.064C6.13235 112.919 5.31423 111.933 4.28571 111.207C3.15 110.442 0.635714 109.778 0.507143 111.921C0.35 114.557 2.53571 115.885 4.67857 116.871C5.51799 117.332 6.40388 117.703 7.32143 117.978C7.32143 118.014 7.32143 118.049 7.32143 118.071C7.24286 118.978 6.38571 119.649 5.69286 120.149C4.62143 120.921 3.27857 121.578 1.97857 121.064C1.52857 120.878 1.34286 121.549 1.67143 121.778C2.94286 122.735 4.77143 121.735 5.89286 120.999C6.55451 120.589 7.13552 120.062 7.60714 119.442C7.89408 119.023 8.0324 118.52 8 118.014C8.22053 118.003 8.4315 117.921 8.6 117.778C8.70714 117.678 8.55714 117.478 8.43571 117.571C8.30213 117.659 8.14573 117.706 7.98571 117.707C7.95625 117.438 7.91334 117.171 7.85714 116.907C7.84771 116.874 7.83034 116.845 7.80663 116.821C7.78291 116.798 7.75361 116.78 7.72143 116.771C7.47027 115.192 7.45102 113.584 7.66428 111.999C7.95714 110.207 10.0214 108.528 11.5357 110.149C11.9913 110.706 12.2685 111.386 12.3309 112.102C12.3934 112.819 12.2382 113.537 11.8857 114.164C11.3214 115.249 10.1357 116.971 8.74286 116.864C8.31428 116.864 8.31428 117.507 8.74286 117.535C10.4357 117.649 11.7214 115.785 12.4571 114.492C12.8603 113.749 13.0372 112.904 12.9661 112.061C12.8951 111.218 12.5791 110.415 12.0571 109.749C10.8714 108.235 8.99286 108.749 7.84286 109.999ZM1.05 113.328C0.878571 112.728 1.01429 111.499 1.71429 111.221C2.07903 111.141 2.45994 111.181 2.8 111.335C3.56674 111.618 4.24972 112.09 4.78571 112.707C6.03571 114.007 6.6 115.828 6.98571 117.549C6.27143 117.307 5.55714 116.892 5.15 116.735C3.56429 116.057 1.56429 115.107 1.05 113.328Z" fill="#FFA348"/>
<path d="M249.071 118.871C248.357 119.507 247.336 119.157 246.493 118.992C245.573 118.888 244.671 118.667 243.807 118.335C242.964 117.949 241.571 117.149 241.278 116.228C241.123 115.742 240.94 115.265 240.728 114.799V114.749C242.529 114.233 244.098 113.114 245.171 111.578C246.128 110.149 246.15 108.285 244.586 107.292C243.286 106.492 241.728 108.007 241.014 108.885C240.21 109.973 239.791 111.297 239.821 112.649C239.421 111.078 239.014 109.464 238.021 108.235C237.164 107.178 235.364 106.614 234.543 108.049C233.828 109.349 235.214 111.392 235.921 112.335C236.786 113.528 238.121 114.792 239.636 114.978C239.67 115.036 239.717 115.086 239.775 115.122C239.832 115.158 239.897 115.18 239.964 115.185C240.194 116.003 240.561 116.776 241.05 117.471C241.922 118.359 242.992 119.03 244.171 119.428C245.269 119.784 246.406 120.002 247.557 120.078C247.959 120.179 248.381 120.161 248.773 120.026C249.164 119.892 249.509 119.647 249.764 119.321C250.014 118.985 249.378 118.571 249.071 118.871ZM243.486 107.857C244.493 107.571 245.086 108.828 245.086 109.607C244.972 110.48 244.564 111.289 243.928 111.899C242.984 112.867 241.794 113.558 240.486 113.899C240.557 111.514 240.793 108.642 243.486 107.857ZM235.157 108.971C235.057 107.649 236.621 108.128 237.143 108.685C237.548 109.194 237.863 109.769 238.071 110.385C238.614 111.692 238.85 113.099 239.336 114.435C238.227 113.965 237.259 113.214 236.526 112.258C235.794 111.301 235.322 110.171 235.157 108.978V108.971Z" fill="#FFA348"/>
<path d="M7.95005 117.958C11.9286 118.972 16.1286 119.208 20.2072 119.501C23.9 119.772 27.6 119.987 31.2929 120.215C36.7072 120.608 42.1643 120.622 47.5929 120.729C60.3857 120.987 73.1858 121.194 85.9857 121.144C100.986 121.079 116.05 121.144 131.043 120.429C142.471 119.872 153.9 119.829 165.264 119.251C174.117 118.803 182.964 118.398 191.807 118.037C200.329 117.687 208.85 117.358 217.371 117.122C224.043 116.944 230.786 117.301 237.3 115.629C238.297 115.31 239.328 115.108 240.371 115.029C240.428 115.02 240.479 114.99 240.516 114.946C240.553 114.903 240.573 114.847 240.573 114.79C240.573 114.733 240.553 114.677 240.516 114.634C240.479 114.59 240.428 114.561 240.371 114.551C239.402 114.61 238.443 114.785 237.514 115.072C235.883 115.509 234.228 115.85 232.557 116.094C228.986 116.572 225.414 116.465 221.843 116.529C214.121 116.686 206.407 116.979 198.693 117.279C189.574 117.637 180.455 118.034 171.336 118.472C167.207 118.665 163.071 118.908 158.943 119.094C152.436 119.386 145.921 119.415 139.414 119.601C131.436 119.822 123.479 120.236 115.5 120.365C107.271 120.498 99.0453 120.587 90.8215 120.629C78.3786 120.701 65.9286 120.558 53.4858 120.351C40.2358 120.129 26.8929 119.901 13.7143 118.394C11.807 118.208 9.91455 117.893 8.05005 117.451C7.75005 117.372 7.62148 117.844 7.92148 117.915L7.95005 117.958Z" fill="#FFA348"/>
<path d="M61.7856 126.043L66.1285 174.157L102.057 168.486C102.057 168.486 101.343 159.914 99.7714 146.907C98.9142 139.764 95.3071 122.793 95.3071 122.793C95.3071 122.793 87.7928 123.114 79.2285 123.836C71.2142 124.507 61.7856 126.043 61.7856 126.043Z" fill="#DCDDE0"/>
<path d="M109.536 124.236C109.536 124.236 109.171 135.936 108.936 141C108.7 146.065 107.364 159.322 107.364 159.322C107.364 159.322 123.157 160.036 136.057 159.686C145.464 159.443 150.286 157.758 150.286 157.758C150.286 157.758 151.371 146.908 151.493 140.758C151.614 134.608 151.25 122.672 151.25 122.672C151.25 122.672 137.786 122.75 130.193 122.872C122.6 122.993 109.536 124.236 109.536 124.236Z" fill="#DCDDE0"/>
<path d="M159.071 123.271C159.071 123.271 159.786 130.714 159.786 137.857C159.786 149.593 160.593 161.65 160.593 161.65L193.871 159.557C193.871 159.557 193.829 151.764 192.743 141.271C192.243 136.436 190.493 120.979 190.493 120.979C190.493 120.979 183.221 121.621 178.636 121.986C174.05 122.35 159.071 123.271 159.071 123.271Z" fill="#DCDDE0"/>
<path d="M196.929 120.715C196.929 120.715 196.443 133.008 196.564 136.751C196.686 140.494 196.929 144.829 196.929 144.829C196.929 144.829 208.486 144.594 212.243 144.222C215.131 143.959 217.996 143.481 220.814 142.794C220.814 142.794 221.179 137.122 221.057 133.508C220.936 129.894 219.486 120.001 219.486 120.001C216.165 119.64 212.826 119.48 209.486 119.522C205.386 119.637 196.929 120.715 196.929 120.715Z" fill="#DCDDE0"/>
<path d="M118.429 135.779C116.736 137.15 116.629 138.729 116.229 140.779C115.822 143.029 115.164 146.629 115.322 148.879C115.486 151.45 117.414 151.45 119.822 151.772C122.679 152.172 125.757 152.236 128.586 152.386C134.957 152.729 139.436 154.022 139.757 148.393C139.922 145.986 139.279 143.393 138.957 141.079C138.714 138.936 138.393 136.179 135.979 135.457C134.656 135.204 133.303 135.148 131.964 135.293C130.357 135.372 129.322 135.086 127.679 135.086C125.536 135.086 123.243 135.086 121.072 135.265C120.707 135.3 118.429 135.779 118.429 135.779Z" fill="white"/>
<path d="M139.9 132.663C137.276 132.305 134.633 132.107 131.986 132.071C129.3 132.035 126.35 131.899 123.736 132.571C122.542 132.928 121.38 133.387 120.264 133.942C119.135 134.452 118.118 135.181 117.271 136.085C117.15 136.221 117.271 136.478 117.464 136.406C120.821 135.256 124.493 135.463 127.993 135.535C129.669 135.568 131.336 135.642 132.993 135.756C134.421 135.849 135.936 135.813 137.243 136.435C137.396 136.513 137.541 136.603 137.679 136.706C139.529 135.742 141.386 134.849 143.236 133.885C142.268 133.159 141.108 132.734 139.9 132.663Z" fill="#FCC18B"/>
<path d="M145.543 144.757C145.414 143.428 145.222 142.107 145.057 140.778C144.924 138.843 144.584 136.927 144.043 135.064C143.89 134.605 143.619 134.193 143.257 133.871C141.407 134.835 139.193 135.3 137.264 136.228C138.3 137.043 138.864 139.085 139.1 140.321C139.4 141.885 139.436 143.471 139.686 145.035C139.925 146.526 139.968 148.041 139.814 149.543C139.749 150.199 139.542 150.833 139.208 151.401C138.873 151.97 138.42 152.459 137.879 152.835L137.622 152.921C137.414 152.985 137.507 153.321 137.714 153.25C139.497 152.694 141.226 151.977 142.879 151.107C143.979 150.507 145.622 149.485 145.736 148.085C145.785 146.972 145.72 145.857 145.543 144.757Z" fill="#858FA9"/>
<path d="M140.457 145.115C140.36 142.771 140.012 140.443 139.421 138.172C138.507 134.772 135.05 134.908 132.171 134.779C128.736 134.629 125.286 134.594 121.843 134.594C118.4 134.594 116.621 135.537 115.771 138.994C115.193 141.687 114.829 144.408 114.507 147.144C114.329 148.637 114.086 150.044 115.05 151.294C116.4 153.037 121.079 152.801 122.979 152.965C126.807 153.301 130.657 153.537 134.5 153.551C137.007 153.551 140.043 153.458 140.543 150.444C140.829 148.751 140.536 146.815 140.457 145.115ZM133.086 152.087C130.271 152.044 127.45 151.865 124.643 151.658C122.364 151.487 120.064 151.329 117.814 150.944C115.564 150.558 115.736 149.029 115.95 147.144C116.25 144.537 116.614 141.944 117.164 139.372C117.629 137.494 118.193 136.308 120.264 136.087C121.177 136.022 122.093 136.008 123.007 136.044C125.629 136.044 128.243 136.108 130.864 136.179C133.6 136.265 137.293 135.794 138.15 139.037C139.007 142.279 139.079 145.901 139.164 149.322C139.25 152.744 135.5 152.144 133.086 152.087Z" fill="#414355"/>
<path d="M120.329 137.199C118.236 137.442 118.186 139.421 117.914 140.878C117.614 142.564 117.4 143.892 117.614 144.735C117.914 145.942 120.95 145.857 122.314 145.942C123.921 146.099 131.236 146.485 133.329 146.585C136.707 146.742 137.614 146.042 137.564 144.192C137.5 142.714 137.464 140.792 136.907 139.428C136.264 137.742 134.371 137.342 132.843 137.342C129.386 137.342 127.557 137.135 124.064 137.135C122.82 137.031 121.569 137.052 120.329 137.199Z" fill="#DCDDE0"/>
<path d="M119.486 149.621C120.286 149.621 120.936 148.972 120.936 148.171C120.936 147.37 120.286 146.721 119.486 146.721C118.685 146.721 118.036 147.37 118.036 148.171C118.036 148.972 118.685 149.621 119.486 149.621Z" fill="#414355"/>
<path d="M136.364 149.136C136.364 149.418 136.28 149.694 136.123 149.929C135.966 150.164 135.743 150.347 135.482 150.455C135.221 150.564 134.934 150.592 134.657 150.537C134.38 150.482 134.125 150.346 133.926 150.146C133.726 149.946 133.59 149.691 133.535 149.414C133.479 149.137 133.508 148.85 133.616 148.589C133.724 148.328 133.907 148.105 134.142 147.948C134.377 147.791 134.653 147.707 134.936 147.707C135.315 147.707 135.678 147.858 135.946 148.125C136.214 148.393 136.364 148.757 136.364 149.136Z" fill="#414355"/>
<path d="M131.657 150.22L122.736 149.756V147.385L131.779 147.87L131.657 150.22Z" fill="#FFA348"/>
<path d="M124.357 145.408H123.879C123.943 144.115 123.993 142.815 124.043 141.522C124.093 140.229 124.136 138.972 124.2 137.693H124.679C124.621 138.965 124.571 140.236 124.521 141.508C124.471 142.779 124.421 144.115 124.357 145.408Z" fill="#FFA348"/>
<path d="M125.807 145.478H125.321C125.386 144.178 125.436 142.885 125.486 141.585C125.536 140.285 125.579 139.035 125.643 137.764H126.129C126.064 139.028 126.014 140.299 125.964 141.571C125.914 142.842 125.871 144.178 125.807 145.478Z" fill="#FFA348"/>
<path d="M127.25 145.55H126.764C126.829 144.25 126.879 142.957 126.929 141.657C126.979 140.357 127.029 139.107 127.093 137.836H127.571C127.507 139.107 127.457 140.372 127.414 141.643C127.371 142.915 127.314 144.286 127.25 145.55Z" fill="#FFA348"/>
<path d="M128.693 145.621H128.214C128.279 144.321 128.329 143.021 128.379 141.721C128.429 140.421 128.471 139.178 128.536 137.906H129.014C128.957 139.171 128.907 140.442 128.857 141.706C128.807 142.971 128.757 144.321 128.693 145.621Z" fill="#FFA348"/>
<path d="M130.136 145.715H129.657C129.721 144.422 129.771 143.122 129.821 141.829C129.871 140.536 129.914 139.279 129.979 138.008H130.464C130.4 139.279 130.35 140.551 130.3 141.822C130.25 143.094 130.207 144.401 130.136 145.715Z" fill="#FFA348"/>
<path d="M131.586 145.764H131.1C131.164 144.471 131.214 143.178 131.264 141.878C131.314 140.578 131.364 139.328 131.429 138.057H131.907C131.843 139.328 131.793 140.6 131.75 141.878C131.707 143.157 131.65 144.471 131.586 145.764Z" fill="#FFA348"/>
<path d="M141.086 126.572C140.968 126.572 140.852 126.596 140.743 126.641C140.635 126.686 140.537 126.753 140.454 126.837C140.372 126.92 140.307 127.02 140.263 127.129C140.22 127.238 140.198 127.355 140.2 127.472C140.2 127.671 140.266 127.864 140.386 128.022C140.2 128.229 140.014 128.451 139.843 128.651L139.371 129.187L138.964 129.672C138.143 130.637 136.343 132.751 135.55 133.551L135.407 133.387C134.879 132.787 134.336 132.158 133.871 131.601L133.1 130.715C132.779 130.344 132.443 129.958 132.1 129.537C132.243 129.372 132.321 129.161 132.321 128.944C132.319 128.769 132.264 128.599 132.165 128.456C132.066 128.312 131.927 128.201 131.765 128.136C131.603 128.071 131.425 128.055 131.254 128.091C131.083 128.127 130.927 128.212 130.804 128.337C130.682 128.461 130.599 128.619 130.566 128.79C130.533 128.962 130.551 129.139 130.619 129.3C130.686 129.461 130.8 129.599 130.945 129.695C131.09 129.792 131.261 129.844 131.436 129.844C131.523 129.845 131.61 129.831 131.693 129.801C132.057 130.244 132.407 130.644 132.736 131.029L133.5 131.929C133.964 132.494 134.514 133.122 135.05 133.729L135.514 134.265L135.879 133.951C136.693 133.151 138.45 131.094 139.343 130.022L139.75 129.544L140.214 129.008L140.786 128.358C140.886 128.399 140.992 128.42 141.1 128.422C141.326 128.402 141.536 128.298 141.689 128.131C141.842 127.964 141.927 127.745 141.927 127.519C141.927 127.292 141.842 127.074 141.689 126.906C141.536 126.739 141.326 126.635 141.1 126.615L141.086 126.572Z" fill="#414355"/>
<path d="M169.636 133.943L182.922 132.715L183.864 143.472L188.871 146.822L188.629 147.386L175.307 151.122L170.122 145.636L168.672 134.486L169.636 133.943Z" fill="white"/>
<path d="M175.407 150.278L171.836 145.864L171.207 134.307L165.9 133.457L165.843 141.843L171.993 148.65L171.986 148.621L175.164 152.293L175.407 150.278Z" fill="#FFA348"/>
<path d="M188.871 148.472L175.164 152.294L175.407 150.279L188.871 146.822V148.472Z" fill="#FFA348"/>
<path d="M170.964 134.486L183.107 132.679L177.079 131.715C175.683 131.724 174.291 131.844 172.914 132.072C170.386 132.408 165.922 133.465 165.922 133.465L170.964 134.486Z" fill="#FCC18B"/>
<path d="M172.414 136.957C171.8 138.8 172.293 141.957 173.193 143.107C174.493 144.75 179.279 144.122 181.271 142.622C183.264 141.122 183.143 135.872 180.557 134.764C178.936 134.107 173.3 134.286 172.414 136.957Z" fill="#858FA9"/>
<path d="M174.321 147.022L174.243 146.543C175.671 146.322 182.229 144.807 183.014 144.564L183.157 145.022C182.307 145.286 175.8 146.786 174.321 147.022Z" fill="#2A9CC8"/>
<path d="M175.286 147.985L175.207 147.506C176.679 147.278 183.5 145.685 184.336 145.428L184.479 145.885C183.636 146.149 176.764 147.756 175.286 147.985Z" fill="#2A9CC8"/>
<path d="M176.214 149.071L176.121 148.6C177.95 148.228 184.921 146.578 185.657 146.35L185.8 146.814C185 147.05 178.086 148.685 176.214 149.071Z" fill="#2A9CC8"/>
<path d="M178.657 136.015C179.743 136.265 180.421 138.158 180.443 139.065C180.479 140.494 179.557 141.386 178.657 142.315C178.629 142.343 178.611 142.379 178.605 142.418C178.6 142.457 178.607 142.497 178.627 142.531C178.647 142.566 178.677 142.592 178.713 142.608C178.75 142.623 178.79 142.625 178.829 142.615C180.386 142.179 181.536 140.129 181.279 138.558C181.15 137.765 179.85 134.844 178.614 135.701C178.587 135.719 178.565 135.744 178.552 135.773C178.539 135.803 178.534 135.836 178.538 135.868C178.543 135.9 178.556 135.93 178.577 135.955C178.598 135.98 178.626 135.998 178.657 136.008V136.015Z" fill="white"/>
<path d="M209.564 124.221C210.94 125.018 212.086 126.158 212.89 127.529C213.693 128.901 214.128 130.458 214.15 132.048C214.172 133.637 213.782 135.206 213.017 136.599C212.252 137.993 211.139 139.165 209.786 140C209 140.507 209.729 141.757 210.5 141.25C217.257 136.964 217.3 126.964 210.257 122.964C210.091 122.869 209.895 122.844 209.711 122.895C209.526 122.945 209.37 123.066 209.275 123.232C209.18 123.398 209.155 123.594 209.206 123.778C209.256 123.963 209.377 124.119 209.543 124.214L209.564 124.221Z" fill="#2A9CC8"/>
<path d="M207.314 126.792C211.971 129.556 211.6 134.478 207.571 137.628C206.857 138.206 207.864 139.221 208.593 138.656C213.429 134.892 213.421 128.735 208.043 125.542C207.877 125.447 207.68 125.422 207.496 125.473C207.312 125.523 207.155 125.644 207.061 125.81C206.966 125.976 206.941 126.172 206.991 126.357C207.041 126.541 207.163 126.697 207.329 126.792H207.314Z" fill="#2A9CC8"/>
<path d="M205.386 129.2C207.964 130.535 208.029 133.664 205.386 134.95C204.543 135.357 205.279 136.6 206.1 136.192C209.672 134.45 209.6 129.764 206.1 127.95C205.272 127.521 204.543 128.771 205.386 129.2Z" fill="#2A9CC8"/>
<path d="M205.029 132.036C205.029 132.339 204.939 132.634 204.771 132.886C204.603 133.137 204.364 133.333 204.085 133.449C203.806 133.564 203.498 133.595 203.202 133.536C202.905 133.477 202.633 133.331 202.419 133.117C202.205 132.903 202.06 132.631 202.001 132.335C201.942 132.038 201.972 131.731 202.088 131.451C202.203 131.172 202.399 130.933 202.651 130.765C202.902 130.597 203.198 130.508 203.5 130.508C203.905 130.508 204.294 130.669 204.581 130.956C204.868 131.242 205.029 131.631 205.029 132.036Z" fill="#2A9CC8"/>
<path d="M86.076 137.394L83.6718 137.613L83.8037 139.057L86.208 138.838L86.076 137.394Z" fill="#414355"/>
<path d="M71.4714 136.336C70.8357 136.586 70.4857 136.336 69.8286 136.493C69.6143 136.55 68.0929 136.557 68.2214 136.815C68.5665 136.986 68.8684 137.233 69.1047 137.537C69.3409 137.841 69.5054 138.195 69.5857 138.572C69.6106 138.975 69.5524 139.379 69.4147 139.758C69.2771 140.138 69.063 140.485 68.7857 140.779C69.4122 140.867 70.0488 140.855 70.6714 140.743C71.1973 140.583 71.7346 140.464 72.2786 140.386C71.9439 140.187 71.6547 139.92 71.4299 139.602C71.2051 139.284 71.0496 138.922 70.9735 138.541C70.8974 138.159 70.9024 137.765 70.9882 137.385C71.0739 137.006 71.2386 136.648 71.4714 136.336Z" fill="#414355"/>
<path d="M86.1071 134.044C85.6392 133.918 85.1464 133.918 84.6785 134.044C84.0896 134.149 83.5075 134.289 82.9357 134.465C82.7357 134.529 82.2785 134.958 82.4642 134.951C82.9997 135.163 83.5099 135.433 83.9857 135.758C84.2297 136.074 84.4337 136.42 84.5928 136.786C84.6643 136.915 84.9 136.751 84.9142 136.615C84.8991 136.188 85.0329 135.769 85.2928 135.429C85.5071 135.201 86.35 134.594 86.5428 134.344C86.5928 134.286 86.2142 134.079 86.1071 134.044Z" fill="#414355"/>
<path d="M92.4429 128.851C91.6 129.008 91.5929 128.658 90.7286 128.736C90.4572 128.736 88.9072 128.972 89.0357 129.243C89.3517 129.403 89.616 129.648 89.7981 129.952C89.9802 130.255 90.0725 130.604 90.0643 130.958C90.0643 131.872 89.6214 132.286 88.9572 132.822C89.7469 132.998 90.5558 133.072 91.3643 133.043C91.9929 133.001 92.1214 132.493 92.7429 132.529C91.75 131.922 91.15 129.751 92.4429 128.851Z" fill="#FCC18B"/>
<path d="M93.0286 128.521C93.1357 129.364 92.1643 130.178 90.8857 130.343C89.6072 130.507 88.4357 129.957 88.3286 129.114C88.2214 128.271 89.2 127.457 90.4714 127.293C91.7429 127.128 92.9214 127.678 93.0286 128.521Z" fill="#FFA348"/>
<path d="M93.4323 131.792L66.3829 135.738L66.6613 137.647L93.7107 133.701L93.4323 131.792Z" fill="#858FA9"/>
<path d="M75.5356 133.844C74.4856 134.165 74.3499 135.329 74.3499 136.337C74.2868 137.67 74.3875 139.006 74.6499 140.315C74.8928 141.279 75.8928 140.958 76.7428 140.794C77.3856 140.672 78.1714 140.437 78.1714 139.629C78.1285 138.987 78.1071 138.408 78.0285 137.765C77.9499 137.122 77.9071 136.537 77.8285 135.937C77.7973 135.215 77.5482 134.521 77.1142 133.944C76.5999 133.572 75.5356 133.844 75.5356 133.844Z" fill="white"/>
<path d="M74.2858 140.714C74.2858 140 74.2072 139.285 74.1572 138.692C73.9358 135.664 73.7858 133.692 76.1143 133.428C76.3295 133.397 76.5487 133.411 76.7579 133.47C76.9671 133.529 77.1616 133.632 77.3286 133.771C78.2 134.528 78.2643 136.357 78.3643 138.885C78.3643 139.361 78.3858 139.869 78.4286 140.407H77.9429C77.9429 139.871 77.9 139.364 77.8786 138.871C77.7929 136.557 77.7215 134.728 77.0143 134.107C76.8958 134.01 76.7581 133.94 76.6103 133.9C76.4626 133.861 76.3081 133.853 76.1572 133.878C74.3786 134.057 74.4072 135.464 74.6429 138.628C74.6858 139.257 74.7358 139.935 74.7715 140.664L74.2858 140.714Z" fill="#414355"/>
<path d="M88.1929 145.335L67.7 147.385L67.0286 140.371L87.5929 138.221L88.1929 145.335Z" fill="#FFA348"/>
<path d="M76.1357 135.892C76.5342 135.892 76.8572 135.569 76.8572 135.171C76.8572 134.772 76.5342 134.449 76.1357 134.449C75.7373 134.449 75.4143 134.772 75.4143 135.171C75.4143 135.569 75.7373 135.892 76.1357 135.892Z" fill="#414355"/>
<path d="M85.6785 150.751C85.7117 150.96 85.6614 151.174 85.5385 151.346C85.4156 151.518 85.2299 151.636 85.0214 151.672L78.8214 152.337C78.6104 152.346 78.404 152.272 78.2475 152.13C78.0909 151.988 77.9968 151.79 77.9857 151.579V151.337C77.9525 151.127 78.0028 150.914 78.1257 150.741C78.2486 150.569 78.4343 150.452 78.6428 150.415L84.8428 149.751C85.0539 149.741 85.2602 149.815 85.4168 149.957C85.5733 150.099 85.6675 150.297 85.6785 150.508V150.751Z" fill="#414355"/>
<path d="M82.3 157.501C82.3174 157.604 82.3142 157.71 82.2906 157.813C82.267 157.915 82.2234 158.012 82.1624 158.097C82.1013 158.183 82.024 158.256 81.9349 158.311C81.8458 158.367 81.7465 158.405 81.6429 158.422L75.4429 159.086C75.3381 159.092 75.2333 159.077 75.1344 159.042C75.0356 159.007 74.9447 158.953 74.8669 158.882C74.7892 158.812 74.7262 158.727 74.6816 158.632C74.637 158.537 74.6117 158.434 74.6071 158.329V158.093C74.574 157.884 74.6243 157.671 74.7472 157.498C74.8701 157.326 75.0558 157.209 75.2643 157.172L81.4643 156.501C81.676 156.493 81.8823 156.569 82.0387 156.712C82.195 156.855 82.2889 157.053 82.3 157.265V157.501Z" fill="#414355"/>
<path d="M82.7857 164.287C82.8188 164.497 82.7675 164.711 82.6431 164.884C82.5187 165.057 82.3312 165.173 82.1214 165.208L75.9286 165.88C75.7161 165.887 75.509 165.812 75.3515 165.669C75.194 165.526 75.0986 165.327 75.0857 165.115V164.88C75.0683 164.776 75.0715 164.67 75.0952 164.567C75.1188 164.465 75.1624 164.368 75.2234 164.283C75.2844 164.197 75.3617 164.124 75.4508 164.069C75.54 164.013 75.6392 163.975 75.7429 163.958L81.9429 163.294C82.1539 163.284 82.3602 163.358 82.5168 163.5C82.6734 163.642 82.7675 163.84 82.7786 164.051L82.7857 164.287Z" fill="#414355"/>
<path d="M94.8428 162.807C94.8758 163.018 94.8246 163.232 94.7002 163.405C94.5758 163.577 94.3883 163.694 94.1785 163.729L87.9857 164.393C87.7739 164.403 87.5668 164.329 87.409 164.187C87.2513 164.046 87.1557 163.848 87.1428 163.636V163.393C87.1096 163.184 87.1599 162.97 87.2828 162.798C87.4057 162.626 87.5914 162.509 87.7999 162.472L93.9999 161.807C94.211 161.798 94.4173 161.872 94.5739 162.014C94.7304 162.156 94.8246 162.354 94.8357 162.565L94.8428 162.807Z" fill="#414355"/>
<path d="M75.6571 152.615C76.2568 152.615 76.7428 152.129 76.7428 151.529C76.7428 150.929 76.2568 150.443 75.6571 150.443C75.0575 150.443 74.5714 150.929 74.5714 151.529C74.5714 152.129 75.0575 152.615 75.6571 152.615Z" fill="#414355"/>
<path d="M96.8786 163.222C97.4782 163.222 97.9643 162.736 97.9643 162.136C97.9643 161.537 97.4782 161.051 96.8786 161.051C96.2789 161.051 95.7928 161.537 95.7928 162.136C95.7928 162.736 96.2789 163.222 96.8786 163.222Z" fill="#414355"/>
<path d="M84.8214 164.671C85.4211 164.671 85.9071 164.185 85.9071 163.586C85.9071 162.986 85.4211 162.5 84.8214 162.5C84.2218 162.5 83.7357 162.986 83.7357 163.586C83.7357 164.185 84.2218 164.671 84.8214 164.671Z" fill="#414355"/>
<path d="M84.8214 158.4C85.4211 158.4 85.9071 157.914 85.9071 157.314C85.9071 156.715 85.4211 156.229 84.8214 156.229C84.2218 156.229 83.7357 156.715 83.7357 157.314C83.7357 157.914 84.2218 158.4 84.8214 158.4Z" fill="#414355"/>
<path d="M88.1929 157.914C88.7925 157.914 89.2786 157.428 89.2786 156.828C89.2786 156.228 88.7925 155.742 88.1929 155.742C87.5933 155.742 87.1072 156.228 87.1072 156.828C87.1072 157.428 87.5933 157.914 88.1929 157.914Z" fill="#414355"/>
<path d="M91.5714 157.435C92.1711 157.435 92.6571 156.949 92.6571 156.349C92.6571 155.75 92.1711 155.264 91.5714 155.264C90.9718 155.264 90.4857 155.75 90.4857 156.349C90.4857 156.949 90.9718 157.435 91.5714 157.435Z" fill="#414355"/>
<path d="M68.4786 154.213L68 154.121C68.0643 153.792 68.1929 153.263 68.2929 152.871L68.3714 152.556C68.3714 152.521 69.2571 149.242 70.0286 149.178C70.4857 149.178 71.9 151.185 71.9571 151.271C72.3473 151.852 72.6821 152.469 72.9571 153.113C73.0143 153.249 73.0571 153.349 73.0929 153.421L72.6714 153.649C72.6129 153.538 72.5604 153.423 72.5143 153.306C72.254 152.688 71.9334 152.097 71.5571 151.542C71.1065 150.879 70.5999 150.255 70.0429 149.678C69.4999 150.61 69.0934 151.616 68.8357 152.663L68.7571 152.992C68.6643 153.371 68.5357 153.899 68.4786 154.213Z" fill="#414355"/>
<path d="M68.6571 152.451L68.5857 151.972L71.9643 151.486L72.0285 151.965L68.6571 152.451Z" fill="#414355"/>
<path d="M69.2929 161.307C69.2357 161.064 69.1429 160.593 69.1215 160.436C69.1 160.279 69.05 159.914 69.0072 159.65L68.9429 159.221C68.9429 158.993 68.8715 158.764 68.8286 158.507C68.7126 157.935 68.6434 157.355 68.6215 156.771H69.1072C69.1244 157.331 69.1913 157.888 69.3072 158.436C69.3072 158.671 69.3857 158.907 69.4215 159.15L69.4857 159.564C69.5286 159.836 69.5715 160.1 69.6 160.371C69.6 160.521 69.7 160.929 69.7572 161.193L69.2929 161.307Z" fill="#414355"/>
<path d="M69.2143 158.964H68.9285V158.721V158.485H69.1714L69.3 158.442C69.7714 158.264 70.1857 158.114 70.5571 157.928C70.9285 157.742 71.5 157.457 71.4714 157.142C71.4706 157.072 71.4542 157.003 71.4233 156.94C71.3924 156.877 71.3478 156.822 71.2928 156.778C71.0152 156.627 70.6895 156.592 70.3857 156.678C69.9948 156.762 69.6105 156.875 69.2357 157.014L68.7643 157.171L68.6285 156.707L69.0857 156.557C69.4829 156.406 69.8913 156.287 70.3071 156.2C70.5238 156.144 70.7495 156.134 70.9704 156.168C71.1914 156.203 71.4031 156.281 71.5928 156.4C71.7003 156.486 71.7878 156.594 71.8495 156.718C71.9111 156.841 71.9454 156.976 71.95 157.114C72.0143 157.764 71.2357 158.157 70.7928 158.371C70.3618 158.58 69.9181 158.761 69.4643 158.914L69.2143 158.964Z" fill="#414355"/>
<path d="M69.4571 161.294L69.3928 160.815C69.9285 160.736 71.8928 160.251 72.25 160.101C72.6071 159.951 73.1143 159.715 73.0571 159.165C73.0511 159.035 73.0159 158.907 72.9541 158.792C72.8923 158.677 72.8055 158.578 72.7 158.501C72.1105 158.202 71.4326 158.129 70.7928 158.294L70.7 157.822C71.472 157.637 72.2853 157.741 72.9857 158.115C73.1457 158.232 73.278 158.383 73.373 158.557C73.4681 158.731 73.5236 158.924 73.5357 159.122C73.5438 159.452 73.4371 159.775 73.234 160.036C73.0308 160.296 72.7437 160.478 72.4214 160.551C72 160.715 69.9928 161.215 69.4571 161.294Z" fill="#414355"/>
<path d="M71.8214 168.165C71.3759 168.168 70.9342 168.083 70.5214 167.915C70.2177 167.794 69.9482 167.601 69.7365 167.352C69.5248 167.103 69.3774 166.806 69.3071 166.487C69.1909 166.085 69.1791 165.66 69.2729 165.253C69.3666 164.845 69.5628 164.469 69.8428 164.158C70.2449 163.785 70.73 163.514 71.2579 163.366C71.7859 163.218 72.3414 163.198 72.8786 163.308L72.8071 163.779C72.347 163.686 71.8712 163.701 71.4183 163.826C70.9654 163.95 70.548 164.179 70.2 164.494C69.9767 164.75 69.8211 165.058 69.7475 165.39C69.6739 165.722 69.6846 166.067 69.7786 166.394C69.8362 166.636 69.9512 166.862 70.1141 167.051C70.2769 167.24 70.4827 167.387 70.7143 167.479C71.1057 167.637 71.5266 167.709 71.9482 167.689C72.3697 167.669 72.7821 167.559 73.1571 167.365L73.4071 167.779C72.9204 168.042 72.3743 168.175 71.8214 168.165Z" fill="#414355"/>
<path d="M17.6428 203.142C16.666 203.54 15.6004 203.668 14.5571 203.513C14.152 203.457 13.7403 203.551 13.3999 203.778C13.1776 203.834 12.975 203.95 12.8142 204.113C12.4214 206.921 9.5428 205.863 8.52851 208.006C7.98566 209.149 9.27851 210.035 10.1928 209.863C12.1055 209.401 13.9463 208.68 15.6642 207.721C16.3785 207.363 17.0571 207.156 17.4428 206.406C17.8785 205.535 17.7571 204.263 17.8857 203.313C17.8714 203.206 17.7214 203.113 17.6428 203.142Z" fill="#2A9CC8"/>
<path d="M35.1 206.429C34.2941 206.23 33.5038 205.972 32.7357 205.658C31.6071 205.122 31.9286 204.229 31.8 203.215C31.9929 203.001 31.45 203.072 31.4357 203.065V203.029C31.4357 203.029 30.0071 202.822 29.8786 202.815C29.3609 202.747 28.8346 202.804 28.3429 202.979C27.4429 203.365 27.3214 204.043 27.2071 204.951C27.0929 205.858 26.9071 206.272 27.6929 206.829C28.8612 207.478 30.091 208.009 31.3643 208.415C32.7143 208.943 36.1929 209.358 36.3643 207.758C36.4071 207 35.7 206.608 35.1 206.429Z" fill="#2A9CC8"/>
<path d="M31.2928 186.899C31.2285 184.092 31.2928 181.285 31.2 178.478C31.1357 176.071 30.8571 173.657 30.8928 171.249C30.8928 170.242 30.8928 168.542 29.6785 168.178C27.4833 167.598 25.2489 167.178 22.9928 166.921C20.4571 166.557 16.8785 166.349 15.85 169.314C15.8274 169.367 15.8244 169.426 15.8414 169.481C15.8584 169.536 15.8943 169.583 15.9428 169.614C14.9 175.149 14.5143 180.807 14.0571 186.414C13.5714 192.414 13.1428 198.421 12.6285 204.414C12.6292 204.462 12.6409 204.51 12.6626 204.553C12.6844 204.597 12.7157 204.635 12.7542 204.664C12.7927 204.694 12.8373 204.714 12.8849 204.724C12.9324 204.734 12.9815 204.733 13.0285 204.721C14.3071 204.285 15.5214 204.942 16.8071 205.057C17.4204 205.097 18.0358 205.022 18.6214 204.835C19.5357 204.521 19.6214 203.407 19.7214 202.557C20.0571 199.878 20.4785 197.221 20.6714 194.521C20.8447 191.188 21.1976 187.866 21.7285 184.571C22.0143 183.138 22.3839 181.724 22.8357 180.335C23.0071 179.764 23.8285 177.057 24.5 178.735C24.7734 179.596 24.899 180.497 24.8714 181.399C24.8714 182.528 25 183.657 25.0571 184.785C25.3785 191.257 25.7 197.885 27.0071 204.257C27.0255 204.318 27.0632 204.372 27.1146 204.411C27.166 204.449 27.2285 204.47 27.2928 204.471C28.7708 204.372 30.2421 204.191 31.7 203.928C31.7509 203.913 31.7957 203.882 31.8278 203.839C31.8599 203.797 31.8777 203.745 31.8785 203.692C32.5357 198.085 31.4214 192.507 31.2928 186.899Z" fill="#858FA9"/>
<path d="M35.8429 140.171L14.9928 125C15.2714 124.686 14.7928 124.093 14.4286 124.378C11.6357 126.521 10.7286 130.55 10.9643 133.95C11.2357 137.921 14.6 140.85 16.5714 144.021C18.8286 147.643 18.4571 152.728 17.6643 156.721C16.7928 161.1 15.5643 165.421 15.3214 169.9C15.3239 169.971 15.342 170.041 15.3747 170.105C15.4073 170.169 15.4536 170.224 15.5103 170.268C15.5669 170.312 15.6325 170.342 15.7023 170.358C15.7722 170.373 15.8445 170.373 15.9143 170.357C17.8381 170.068 19.7877 169.989 21.7286 170.121C24.75 170.371 27.7214 171.35 30.7429 171.6C30.8565 171.6 30.9655 171.555 31.0459 171.474C31.1263 171.394 31.1714 171.285 31.1714 171.171C31.2857 169.071 31.1714 167.25 31.1143 164.921C31.05 161.986 31.8786 159.136 32.4 156.236C33.3 151.236 33.7786 145 36.4857 140.621C36.75 140.164 36.1429 139.836 35.8429 140.171Z" fill="#414355"/>
<path d="M39.2428 125.199C31.1643 122.185 19.5928 116.156 19.5928 116.156L11.3214 140.713C11.6301 140.801 11.9124 140.963 12.143 141.186C12.3735 141.41 12.5453 141.686 12.6428 141.992C12.8214 142.471 13.0857 142.063 13.4571 142.292C14.1714 142.742 13.3357 143.778 13.9071 143.949C14.5884 144.218 15.1836 144.667 15.6286 145.249C15.8357 143.821 16.3428 142.506 17.6428 142.863C18.1857 143.042 17.9786 143.163 18.2786 142.563C18.5504 142.282 18.918 142.114 19.3084 142.091C19.6988 142.069 20.0834 142.194 20.3857 142.442C20.8714 142.863 21.1 143.813 21.1428 143.706C21.1857 143.599 21.6428 143.042 22.1071 143.921C22.2571 144.206 22.7428 145.156 22.9214 145.399C23.1028 145.669 23.229 145.973 23.2928 146.292C26.3983 146.514 29.4802 146.992 32.5071 147.721C34.7857 148.263 37.0143 148.992 39.2285 149.735C41.1026 150.302 42.9031 151.088 44.5928 152.078C46.6885 153.413 48.6082 155.007 50.3071 156.821C50.7714 155.485 51.3 153.885 51.8643 151.992C54.0071 144.756 57.5357 131.128 57.5357 131.128C57.5357 131.128 42.7285 126.499 39.2428 125.199Z" fill="#DCDDE0"/>
<path d="M18.9428 122.215C18.1357 121.886 17.15 122.365 16.4785 122.793C15.5929 123.293 14.7825 123.916 14.0714 124.643L13.9785 124.686C13.6564 125.011 13.4466 125.43 13.3798 125.882C13.313 126.334 13.3926 126.796 13.6071 127.2C14.1214 128.322 15.2857 128.129 16.6357 127.915C17.5571 127.75 18.4928 127.672 19 126.95C19.4071 126.386 18.85 126.143 18.4 125.972C18.9357 125.686 19.7 125.257 19.6071 124.686C19.55 124.336 18.9857 124.065 18.7285 123.972C19.0011 123.842 19.2278 123.633 19.3785 123.372C19.4481 123.272 19.4924 123.157 19.5075 123.036C19.5226 122.915 19.5081 122.792 19.4652 122.678C19.4223 122.565 19.3523 122.463 19.2613 122.382C19.1703 122.301 19.061 122.244 18.9428 122.215Z" fill="#FCC18B"/>
<path d="M19.7857 124.779C19.7771 124.557 19.686 124.346 19.5301 124.187C19.3742 124.029 19.1648 123.934 18.9428 123.922C19.1828 123.795 19.3943 123.62 19.5642 123.408C19.9642 122.908 19.4714 122.472 19.0642 122.258C19.052 122.252 19.038 122.25 19.0248 122.254C19.0116 122.257 19.0001 122.265 18.9923 122.277C18.9845 122.288 18.9811 122.301 18.9825 122.315C18.9839 122.329 18.9901 122.341 19 122.351C20.0928 123.329 18.7928 123.779 17.6785 123.993L17.1928 124.086L16.6428 124.172H16.5714C16.3214 124.222 16.3857 124.601 16.6285 124.601C17.1459 124.567 17.657 124.468 18.15 124.308C19.3642 124.029 19.8928 124.872 18.8642 125.515C18.2551 125.794 17.5913 125.933 16.9214 125.922H16.6714V126.229H16.8714C17.1283 126.243 17.3859 126.243 17.6428 126.229C17.8142 126.229 19.7142 126.086 18.8571 127.036C18.3928 127.551 16.3571 128.008 15.4357 128.101C15 128.143 15.1714 128.486 15.3142 128.465C17.2142 128.193 19.2285 127.629 19.2285 126.693C19.2302 126.52 19.1689 126.352 19.0558 126.221C18.9428 126.089 18.7859 126.003 18.6142 125.979C19.2285 125.715 19.7857 125.436 19.7857 124.779Z" fill="#414355"/>
<path d="M41.7763 131.418L33.6583 132.812L33.8223 133.767L41.9403 132.373L41.7763 131.418Z" fill="#858FA9"/>
<path d="M33.0213 129.282L32.0897 129.531L33.4514 134.624L34.383 134.375L33.0213 129.282Z" fill="#414355"/>
<path d="M43.4417 128.801L39.6864 132.5L40.3631 133.187L44.1184 129.488L43.4417 128.801Z" fill="#414355"/>
<path d="M38.1642 132.144C37.9428 132.694 37.7285 133.251 37.5142 133.808L36.8785 133.722L37.5928 132.208C37.7142 131.929 37.3 131.686 37.1714 131.965C36.2714 133.972 35.3428 135.972 34.4785 137.994C34.3571 138.279 34.7785 138.522 34.9 138.236C35.2285 137.465 35.5714 136.694 35.9214 135.922L36.5357 135.965H36.7214C36.4571 136.679 36.1857 137.351 35.9071 138.036C35.7857 138.329 36.25 138.451 36.3714 138.165C36.7 137.365 38.4142 132.865 38.6571 132.258C38.75 131.972 38.2785 131.851 38.1642 132.144ZM36.5285 135.486H36.3642H36.1L36.6785 134.194C36.8116 134.183 36.9454 134.183 37.0785 134.194C37.1782 134.204 37.2788 134.204 37.3785 134.194L36.8642 135.565C36.7555 135.524 36.6431 135.493 36.5285 135.472V135.486Z" fill="#858FA9"/>
<path d="M26.7 148.715L31.5285 137.022C31.5285 137.022 32.7285 135.594 36.3499 136.537C37.6628 136.825 38.8228 137.588 39.6071 138.68L36.2142 151.122L26.7 148.715Z" fill="#FCC18B"/>
<path d="M42.8571 145.5L40.0071 147.907L39.2856 151.007L42.9428 152.893L44.1071 149.157L42.8571 145.5Z" fill="#FCC18B"/>
<path d="M43.7429 148.871L42.1357 152.25L45.9929 154.421L47.5215 150.964L43.7429 148.871Z" fill="white"/>
<path d="M42.8214 145.822L43.4643 149.479L47.8 151.329L47.6429 147.229L42.9429 145.086C42.9429 145.086 39.4214 147.579 39.5643 147.772C39.6827 147.909 39.817 148.031 39.9643 148.136L42.8214 145.822Z" fill="#FFA348"/>
<path d="M32.6071 139.428L31.4071 142.042L32.85 142.199L33.8142 139.428H32.6071Z" fill="#858FA9"/>
<path d="M30.8 143.35L28.9357 147.564L30.9857 147.992L32.4285 143.528L30.8 143.35Z" fill="#858FA9"/>
<path d="M22.1215 143.922C21.6572 143.043 21.2501 143.558 21.1572 143.708C21.0643 143.858 20.8858 142.865 20.4001 142.443C20.0977 142.195 19.7132 142.07 19.3228 142.093C18.9324 142.115 18.5647 142.284 18.2929 142.565C17.9929 143.165 18.2001 143.043 17.6572 142.865C16.3358 142.508 15.8501 143.801 15.6429 145.251C15.1979 144.669 14.6028 144.219 13.9215 143.951C13.3501 143.779 14.1929 142.743 13.4715 142.293C13.1001 142.065 12.8358 142.472 12.6572 141.993C12.5583 141.686 12.3844 141.408 12.1512 141.185C11.918 140.962 11.6328 140.8 11.3215 140.715L9.28577 146.758C10.4951 146.544 11.7165 146.406 12.9429 146.343C15.1501 146.186 17.3429 146.208 19.5501 146.193C20.7929 146.193 22.0501 146.229 23.3072 146.315C23.2434 145.996 23.1172 145.692 22.9358 145.422C22.7572 145.158 22.2715 144.208 22.1215 143.922Z" fill="white"/>
<path d="M19.1072 144.722C19.1929 144.314 19.5358 144.007 19.7001 143.636C19.7429 143.536 19.5786 143.45 19.5072 143.529C19.2551 143.817 19.048 144.142 18.8929 144.493C18.8077 144.723 18.7525 144.963 18.7286 145.207C18.6235 144.956 18.4552 144.735 18.2399 144.567C18.0247 144.4 17.7699 144.291 17.5001 144.25C17.3786 144.25 17.3501 144.414 17.4429 144.472C19.4429 145.657 18.3929 147.95 18.9501 149.736C19.0286 149.986 19.4572 149.957 19.4286 149.672C19.3501 148.836 19.3929 146.943 18.9143 145.629C19.0079 145.333 19.0725 145.029 19.1072 144.722Z" fill="#858FA9"/>
<path d="M20.1071 144.286C19.9297 144.704 19.8374 145.153 19.8357 145.607C19.6985 146.044 19.638 146.501 19.6571 146.957C19.6645 146.976 19.6774 146.992 19.6939 147.003C19.7105 147.014 19.73 147.02 19.75 147.02C19.77 147.02 19.7895 147.014 19.8061 147.003C19.8226 146.992 19.8354 146.976 19.8428 146.957C20.0928 146.115 20.1857 145.25 20.3714 144.4C20.3866 144.365 20.3872 144.326 20.3731 144.29C20.359 144.255 20.3315 144.226 20.2964 144.211C20.2614 144.196 20.2217 144.195 20.1862 144.209C20.1507 144.223 20.1223 144.251 20.1071 144.286Z" fill="#858FA9"/>
<path d="M21.0786 145.101C20.6429 145.486 20.5143 146.122 20.0857 146.529C20.0143 146.601 20.0857 146.715 20.2 146.665C20.7143 146.393 20.9643 145.786 21.3143 145.343C21.3465 145.312 21.365 145.269 21.3656 145.224C21.3663 145.18 21.3491 145.136 21.3179 145.104C21.2866 145.072 21.2438 145.053 21.199 145.053C21.1541 145.052 21.1108 145.069 21.0786 145.101Z" fill="#858FA9"/>
<path d="M12.2928 143.829C12.0203 144.06 11.8487 144.388 11.8142 144.744C11.7238 144.518 11.5848 144.316 11.4071 144.151C11.3844 144.129 11.3552 144.116 11.324 144.112C11.2929 144.109 11.2615 144.116 11.2347 144.132C11.2079 144.148 11.1872 144.173 11.1758 144.202C11.1643 144.231 11.1628 144.263 11.1714 144.294C11.2571 144.801 11.5785 145.286 11.7142 145.801C11.8616 146.372 11.9027 146.965 11.8357 147.551C11.8357 147.665 12.0071 147.715 12.0571 147.608C12.2733 147.057 12.3059 146.45 12.15 145.879C12.15 145.772 12.1 145.644 12.0714 145.515C12.1093 145.298 12.1331 145.078 12.1428 144.858C12.186 144.55 12.2957 144.255 12.4642 143.994C12.5142 143.894 12.4 143.751 12.2928 143.829Z" fill="#858FA9"/>
<path d="M23.1072 145.372C22.79 144.916 22.5488 144.412 22.3929 143.879C22.1857 143.358 21.6143 142.944 21.1786 143.165C20.9072 142.665 20.7143 141.887 19.9215 141.837C19.4429 141.837 18.45 141.837 18.1572 142.344C17.9286 142.758 17.7357 142.651 17.2929 142.565C17.1174 142.545 16.9396 142.562 16.7711 142.615C16.6025 142.668 16.4469 142.756 16.3143 142.872C15.6 143.322 15.6572 144.137 15.6 144.865C14.9857 144.251 14.8143 143.829 13.9143 143.758C14.096 143.456 14.1507 143.094 14.0664 142.751C13.9821 142.408 13.7656 142.113 13.4643 141.929C13.3514 141.85 13.2235 141.794 13.0884 141.766C12.9533 141.738 12.8138 141.738 12.6786 141.765C12.3857 141.222 12.0786 140.687 11.4143 140.572C11.3701 140.649 11.3174 140.721 11.2572 140.787C11.8643 140.915 12.4643 141.279 12.4643 141.887C12.4019 141.945 12.352 142.016 12.3176 142.095C12.2832 142.173 12.2651 142.258 12.2643 142.344C12.2655 142.402 12.2817 142.458 12.3114 142.508C12.341 142.558 12.383 142.599 12.4334 142.628C12.4837 142.657 12.5407 142.672 12.5987 142.672C12.6567 142.673 12.7137 142.658 12.7643 142.629L12.8215 142.594C12.8747 142.559 12.9168 142.509 12.9429 142.451L13.1 142.551C13.5572 142.751 13.6572 143.179 13.3857 143.851C13.3685 143.882 13.3596 143.917 13.36 143.953C13.3604 143.989 13.3701 144.024 13.3881 144.055C13.406 144.086 13.4317 144.112 13.4626 144.13C13.4935 144.148 13.5285 144.157 13.5643 144.158C14.5572 144.044 14.9572 144.794 15.6072 145.358C15.632 145.381 15.663 145.397 15.6964 145.403C15.7298 145.409 15.7643 145.406 15.7958 145.393C15.8273 145.38 15.8545 145.359 15.8743 145.331C15.894 145.303 15.9054 145.27 15.9072 145.237C15.9394 144.933 15.9537 144.628 15.95 144.322C15.95 143.151 17.1429 142.808 18.0929 143.044C18.1107 143.049 18.1294 143.051 18.1479 143.048C18.1664 143.046 18.1843 143.04 18.2003 143.031C18.2164 143.022 18.2304 143.009 18.2414 142.994C18.2524 142.979 18.2602 142.962 18.2643 142.944C18.3929 142.229 19.1 142.279 19.5786 142.229C20.5857 142.229 20.6572 143.094 20.9572 143.658C20.9728 143.682 20.994 143.701 21.019 143.714C21.0439 143.728 21.0717 143.735 21.1 143.735C21.1283 143.735 21.1562 143.728 21.1811 143.714C21.206 143.701 21.2272 143.682 21.2429 143.658C21.8715 142.758 22.4572 145.208 22.3429 145.015C22.4929 145.272 22.8215 145.422 22.9929 145.729C24.0857 147.487 21.1857 147.494 20.2143 147.529C19.0929 147.529 17.9929 147.744 16.8715 147.758C15.75 147.772 14.5357 147.672 13.3643 147.658C12.1929 147.644 10.9643 147.658 9.79288 147.608C9.56431 147.608 9.30717 147.608 9.0786 147.608C9.04814 147.729 8.98658 147.84 8.90002 147.929C9.19965 147.951 9.5004 147.951 9.80002 147.929C12.0143 147.858 14.25 147.994 16.4715 148.044C18.4069 148.058 20.3407 147.929 22.2572 147.658C22.6014 147.632 22.922 147.473 23.1502 147.214C23.3785 146.955 23.4963 146.617 23.4786 146.272C23.4486 145.942 23.3191 145.628 23.1072 145.372Z" fill="#858FA9"/>
<path d="M44.6072 152.058C42.9175 151.068 41.1169 150.282 39.2429 149.715C37.0286 149.001 34.8 148.243 32.5215 147.701C28.2742 146.675 23.9194 146.162 19.55 146.172C17.3429 146.172 15.15 146.172 12.9429 146.322C11.7164 146.384 10.495 146.523 9.28575 146.736L8.85718 147.993C13.847 150.549 19.0041 152.763 24.2929 154.622C25.7215 155.136 29.5929 156.379 33.8143 157.715L39.0072 159.358C38.8858 159.022 38.7 158.693 38.5715 158.393C38.2892 157.89 38.0731 157.352 37.9286 156.793C37.9188 156.739 37.9277 156.683 37.9538 156.635C37.9799 156.586 38.0217 156.548 38.0723 156.527C38.123 156.505 38.1795 156.501 38.2325 156.516C38.2856 156.531 38.3321 156.563 38.3643 156.608C38.7497 157.178 39.0392 157.808 39.2215 158.472C39.2929 158.308 39.3715 158.151 39.4429 158.001C39.5896 157.638 39.8376 157.326 40.1572 157.101C40.2643 157.043 40.4072 157.165 40.3286 157.279C39.9479 157.785 39.629 158.334 39.3786 158.915C39.4298 159.104 39.4609 159.298 39.4715 159.493L41.6786 160.208C41.7196 159.709 41.6663 159.208 41.5215 158.729C41.2169 158.102 41.0006 157.437 40.8786 156.751C40.8786 156.615 41.05 156.593 41.1143 156.686C41.3143 156.986 41.55 157.293 41.7572 157.622C41.7858 157.531 41.8267 157.445 41.8786 157.365C42.1555 156.952 42.4981 156.588 42.8929 156.286C42.9429 156.243 43.0143 156.286 42.9858 156.365C42.8072 156.772 42.3786 156.979 42.1429 157.351C42.033 157.519 41.96 157.709 41.9286 157.908C42.1154 158.22 42.2505 158.56 42.3286 158.915C42.4373 158.67 42.5589 158.432 42.6929 158.201C43.0057 157.64 43.4342 157.153 43.95 156.772C44.0786 156.679 44.2358 156.886 44.1215 156.993C43.3366 157.723 42.7368 158.629 42.3715 159.636C42.3734 159.903 42.3614 160.17 42.3358 160.436L44.3643 161.072C44.3643 160.651 44.3643 160.201 44.4215 159.836C44.4467 159.339 44.5756 158.852 44.8 158.408C44.8715 158.293 45.0786 158.329 45.0643 158.479C45.0143 158.943 44.9286 159.401 44.8572 159.865C45.056 159.655 45.2709 159.462 45.5 159.286C45.7557 159.057 46.0332 158.854 46.3286 158.679C46.4358 158.636 46.5215 158.801 46.4429 158.872C45.9273 159.333 45.3729 159.749 44.7858 160.115C44.7858 160.286 44.7358 160.458 44.7215 160.636C44.7072 160.815 44.6786 160.965 44.65 161.129L45.5 161.386C45.8142 160.679 46.341 160.087 47.0072 159.693C47.0319 159.677 47.0617 159.669 47.0915 159.672C47.1213 159.675 47.1491 159.688 47.1703 159.709C47.1914 159.73 47.2045 159.758 47.2073 159.788C47.2102 159.817 47.2025 159.847 47.1858 159.872C46.8879 160.241 46.5632 160.587 46.2143 160.908C46.0643 161.089 45.9259 161.28 45.8 161.479L48.1715 162.193C48.1715 162.193 48.5786 161.408 49.2715 159.665C49.5786 158.893 49.9429 157.936 50.35 156.808C48.6427 154.99 46.7133 153.394 44.6072 152.058Z" fill="#2A9CC8"/>
<path d="M44.1072 156.951C44.2214 156.844 44.0643 156.637 43.9357 156.729C43.4199 157.111 42.9914 157.598 42.6786 158.158C42.5445 158.389 42.4229 158.628 42.3143 158.872C42.2413 158.516 42.1111 158.173 41.9286 157.858C41.96 157.659 42.033 157.469 42.1429 157.301C42.3786 156.929 42.8072 156.722 42.9857 156.315C42.9857 156.244 42.9429 156.194 42.8929 156.237C42.4981 156.538 42.1554 156.903 41.8786 157.315C41.8266 157.395 41.7858 157.481 41.7572 157.572C41.55 157.244 41.3143 156.937 41.1143 156.637C41.05 156.544 40.8643 156.565 40.8786 156.701C41.0005 157.387 41.2169 158.053 41.5214 158.679C41.6663 159.158 41.7196 159.66 41.6786 160.158L42.3357 160.365C42.3614 160.099 42.3733 159.832 42.3714 159.565C42.7366 158.569 43.3312 157.674 44.1072 156.951Z" fill="white"/>
<path d="M47.1929 159.871C47.2096 159.846 47.2173 159.816 47.2144 159.786C47.2116 159.757 47.1985 159.729 47.1774 159.708C47.1562 159.686 47.1284 159.673 47.0986 159.67C47.0688 159.668 47.039 159.675 47.0143 159.692C46.3455 160.085 45.816 160.677 45.5 161.385L45.7857 161.478C45.9116 161.279 46.0499 161.088 46.2 160.906C46.5563 160.586 46.8881 160.24 47.1929 159.871Z" fill="white"/>
<path d="M40.3143 157.278C40.3929 157.164 40.25 157.042 40.1429 157.099C39.8233 157.324 39.5753 157.637 39.4286 157.999C39.3572 158.149 39.2786 158.306 39.2072 158.471C39.0249 157.807 38.7354 157.177 38.35 156.606C38.3177 156.562 38.2713 156.529 38.2182 156.515C38.1652 156.5 38.1087 156.504 38.058 156.525C38.0074 156.547 37.9656 156.585 37.9395 156.634C37.9133 156.682 37.9045 156.738 37.9143 156.792C38.0588 157.351 38.2749 157.889 38.5572 158.392C38.6857 158.692 38.8714 159.021 38.9929 159.356L39.4429 159.492C39.4323 159.296 39.4012 159.103 39.35 158.914C39.6049 158.332 39.9286 157.783 40.3143 157.278Z" fill="white"/>
<path d="M44.7857 160.114C45.3583 159.744 45.8984 159.325 46.4 158.864C46.4786 158.792 46.4 158.628 46.2857 158.671C46.0049 158.85 45.7418 159.056 45.5 159.285C45.2801 159.446 45.0724 159.622 44.8786 159.814C44.95 159.349 45.0357 158.892 45.0857 158.428C45.0857 158.278 44.8929 158.242 44.8215 158.356C44.597 158.801 44.4681 159.288 44.4429 159.785C44.4 160.149 44.4429 160.599 44.3857 161.021L44.6929 161.121C44.6929 160.956 44.7429 160.799 44.7643 160.628C44.7857 160.456 44.7857 160.285 44.7857 160.114Z" fill="white"/>
<path d="M49.6143 158.764C49.4572 158.643 49.2858 158.522 49.0929 158.393C48.912 158.252 48.7034 158.15 48.4807 158.095C48.2579 158.039 48.026 158.032 47.8 158.072C47.4858 158.214 47.7072 158.2 47.7215 157.814C47.7542 157.376 47.7033 156.934 47.5715 156.514C47.4286 156.079 46.8572 155.85 46.4929 155.722C46.3125 155.675 46.1233 155.675 45.9429 155.722C45.5786 155.822 45.7786 155.964 45.7286 155.529C45.65 154.864 44.9 154.814 44.5286 155.143C44.3286 154.643 44.0786 153.914 43.25 153.85C42.928 153.785 42.5936 153.827 42.2973 153.969C42.001 154.11 41.7587 154.344 41.6072 154.636C40.8358 153.707 39.3929 153.922 38.5072 154.679C38.2654 154.905 38.0921 155.195 38.0072 155.514C37.95 155.679 37.5358 155.586 37.2929 155.643C37.0154 155.684 36.7591 155.815 36.5641 156.017C36.369 156.218 36.246 156.479 36.2143 156.757C36.0265 156.728 35.8346 156.737 35.6501 156.782C35.4656 156.828 35.2921 156.91 35.1397 157.024C34.9874 157.138 34.8593 157.281 34.7629 157.445C34.6666 157.609 34.6039 157.79 34.5786 157.979L34.9643 158.1C35.0643 157.386 35.4358 156.564 36.2358 157.186C36.2666 157.214 36.3049 157.234 36.3462 157.241C36.3875 157.249 36.4301 157.244 36.469 157.229C36.508 157.213 36.5416 157.186 36.5661 157.152C36.5906 157.118 36.6048 157.078 36.6072 157.036C36.6715 156.172 37.3715 155.964 38.0358 155.922C38.0521 155.932 38.071 155.938 38.0903 155.938C38.1097 155.939 38.1288 155.934 38.1456 155.924C38.1625 155.915 38.1764 155.901 38.186 155.884C38.1956 155.867 38.2004 155.848 38.2 155.829C38.2781 155.411 38.4946 155.031 38.8147 154.751C39.1347 154.472 39.5397 154.308 39.9643 154.286C40.4358 154.236 41.3929 154.529 41.4429 155.122C41.4452 155.167 41.4617 155.21 41.49 155.245C41.5183 155.28 41.557 155.306 41.6005 155.317C41.6441 155.329 41.6903 155.327 41.7325 155.311C41.7748 155.295 41.8109 155.266 41.8358 155.229C42.5858 154.079 43.8643 154.129 44.3572 155.579C44.4 155.707 44.5858 155.579 44.7858 155.45C44.8848 155.422 44.9895 155.421 45.0892 155.447C45.1888 155.473 45.2797 155.525 45.3525 155.598C45.4252 155.671 45.4773 155.761 45.5032 155.861C45.5292 155.961 45.5281 156.065 45.5 156.164C45.5012 156.19 45.5098 156.216 45.5247 156.237C45.5397 156.258 45.5605 156.274 45.5845 156.284C45.6086 156.294 45.635 156.297 45.6605 156.292C45.6861 156.287 45.7097 156.275 45.7286 156.257C46.2929 155.586 47.2072 156.3 47.4 156.914C47.4824 157.425 47.4824 157.946 47.4 158.457C47.4004 158.485 47.409 158.513 47.4247 158.536C47.4405 158.559 47.4626 158.577 47.4885 158.587C47.5143 158.598 47.5428 158.601 47.5702 158.596C47.5977 158.59 47.6229 158.577 47.6429 158.557C48.15 158.036 49.3643 159.029 49.4072 159.272C49.5215 159.036 49.5643 158.857 49.6143 158.764Z" fill="white"/>
<path d="M167.793 94.3567C167.021 94.5281 166.593 95.9281 166.143 96.4995C165.576 97.1154 165.096 97.8049 164.714 98.5495C164.557 98.8995 164.4 99.4995 164.714 99.8209C164.871 99.9979 165.087 100.112 165.321 100.142C166.075 100.193 166.822 100.305 167.557 100.478C168.236 100.585 168.521 99.9567 168.714 99.4352C169.207 98.1352 169.85 96.9352 170.257 95.6067C170.371 95.6995 170.557 95.6924 170.593 95.5138C170.871 94.2067 168.564 94.1852 167.793 94.3567Z" fill="#2A9CC8"/>
<path d="M161.864 106.557L156.157 106.393L156.078 108.564H161.864V106.557Z" fill="#414355"/>
<path d="M170.043 100.243C169.079 99.9713 168.122 100.293 167.15 99.9641C166.474 99.6065 165.714 99.4363 164.95 99.4713C164.743 99.507 164.822 99.7856 164.95 99.8213C164.95 100.728 165.114 102.007 165.972 102.45C167.409 102.824 168.926 102.751 170.322 102.243C171.364 101.721 171.086 100.536 170.043 100.243Z" fill="#858FA9"/>
<path d="M166.086 102.293L165.371 102.457C165.371 102.457 165.693 104.3 165.936 104.3C166.178 104.3 170.757 103.822 170.757 103.822L171.157 101.814L166.086 102.293Z" fill="#414355"/>
<path d="M178.743 100.85C177.657 95.4213 172.114 89.9927 166.2 90.1356C165.843 90.1356 165.357 90.257 164.879 90.257C164.866 90.3491 164.823 90.4345 164.757 90.4999C162.017 90.0179 159.194 90.3972 156.679 91.5856C153.55 93.1306 150.965 95.589 149.264 98.6356C147.579 101.528 147.636 105.814 148.721 109.064C149.536 111.821 151.229 114.236 153.543 115.943C156.041 117.669 158.948 118.709 161.974 118.96C164.999 119.21 168.038 118.663 170.786 117.371C176.571 114.471 180.071 107.143 178.743 100.85ZM167.314 113.507C163.1 115.314 157.971 113.95 154.779 110.65C152.064 107.793 151.764 102.207 155.021 98.7141C156.95 96.7856 160.564 94.2499 163.457 95.0927L164.421 95.0356C168.764 95.157 173.143 97.9356 173.829 102.393C174.643 107.857 171.507 111.821 167.286 113.507H167.314Z" fill="#414355"/>
<path d="M163.743 86.3205L161.334 86.4805L162.389 102.36L164.798 102.2L163.743 86.3205Z" fill="white"/>
<path d="M161.021 86.3793C160.952 87.7397 161.019 89.1036 161.221 90.4507C161.371 91.8079 161.564 93.165 161.629 94.5293C161.693 95.8936 161.629 97.1793 161.764 98.5079C161.829 99.1793 161.9 99.8579 161.957 100.536C162.014 101.215 161.957 101.829 162.086 102.451C162.093 102.482 162.111 102.51 162.136 102.531C162.161 102.551 162.193 102.562 162.225 102.562C162.257 102.562 162.289 102.551 162.314 102.531C162.339 102.51 162.357 102.482 162.364 102.451C162.427 101.813 162.415 101.171 162.329 100.536C162.271 99.8864 162.207 99.2364 162.143 98.5936C162.014 97.2364 162.064 95.8864 162 94.5293C161.936 93.1722 161.743 91.865 161.593 90.5364C161.443 89.2079 161.4 87.765 161.257 86.3793C161.251 86.353 161.235 86.3296 161.214 86.3129C161.193 86.2962 161.166 86.2871 161.139 86.2871C161.112 86.2871 161.086 86.2962 161.064 86.3129C161.043 86.3296 161.028 86.353 161.021 86.3793Z" fill="#414355"/>
<path d="M160.336 105.272L167.407 102.137L168.457 103.258L161.864 106.558L160.336 105.272Z" fill="#DCDDE0"/>
<path d="M165.236 104.221C165.244 104.326 165.221 104.43 165.169 104.522C165.118 104.613 165.039 104.686 164.945 104.732C164.851 104.779 164.745 104.795 164.641 104.78C164.538 104.765 164.441 104.719 164.363 104.648C164.286 104.577 164.232 104.485 164.208 104.383C164.184 104.28 164.192 104.174 164.23 104.076C164.268 103.978 164.334 103.894 164.421 103.834C164.507 103.775 164.609 103.743 164.714 103.743C164.78 103.74 164.846 103.75 164.907 103.772C164.969 103.795 165.026 103.829 165.074 103.874C165.123 103.918 165.162 103.972 165.19 104.031C165.217 104.091 165.233 104.156 165.236 104.221Z" fill="#858FA9"/>
<path d="M162.793 105.957C162.529 105.814 162.257 105.679 161.993 105.529C161.279 105.114 161.471 104.293 161.529 103.686C161.643 102.593 160.1 101.6 159.5 102.636L159.279 102.5C159.271 102.483 159.258 102.47 159.242 102.462C159.225 102.454 159.207 102.452 159.189 102.456C159.171 102.46 159.155 102.471 159.144 102.485C159.133 102.5 159.128 102.518 159.129 102.536C159.064 103.357 158 103.707 157.879 104.55C157.8 105.043 159.271 105.979 159.557 106.207C160.334 106.811 161.155 107.356 162.014 107.836C162.429 108.079 163.179 108.257 163.536 107.8C163.67 107.608 163.738 107.377 163.73 107.143C163.723 106.909 163.639 106.683 163.493 106.5C163.315 106.257 163.073 106.068 162.793 105.957Z" fill="#858FA9"/>
<path d="M159.45 83.4858C158.021 83.5644 154.886 82.8073 153.786 84.0858C152.821 85.2144 154.229 87.7858 155.35 87.943C156.636 88.1073 163.921 88.3501 165.236 87.943C166.55 87.5358 166.2 85.893 165 84.693C164.036 83.7287 160.814 83.0858 159.529 83.4858V83.5715L159.45 83.4858Z" fill="#414355"/>
<path d="M159.45 83.3779C158.257 83.3779 157.064 83.135 155.879 83.1993C154.957 83.2493 153.736 83.4922 153.429 84.5136C153.334 85.0359 153.365 85.5731 153.519 86.081C153.673 86.589 153.946 87.053 154.314 87.435C154.578 87.7732 154.952 88.0082 155.371 88.0993C155.651 88.1396 155.932 88.1659 156.214 88.1779C158.357 88.3493 160.5 88.4064 162.643 88.3707C163.456 88.3839 164.268 88.3289 165.071 88.2064C165.295 88.1565 165.505 88.057 165.685 87.9152C165.864 87.7734 166.01 87.5929 166.111 87.3872C166.212 87.1814 166.265 86.9557 166.267 86.7266C166.269 86.4975 166.219 86.2709 166.121 86.0636C165.879 85.4594 165.492 84.9243 164.994 84.5057C164.495 84.087 163.901 83.7978 163.264 83.6636C162.589 83.4677 161.899 83.3314 161.2 83.2564C160.638 83.12 160.048 83.1573 159.507 83.3636C159.475 83.3814 159.45 83.4093 159.436 83.443C159.422 83.4766 159.419 83.514 159.429 83.5493V83.6207L159.643 83.4636L159.543 83.4136C159.522 83.3981 159.497 83.3906 159.471 83.3924C159.445 83.3943 159.421 83.4053 159.403 83.4235C159.385 83.4418 159.374 83.466 159.372 83.4917C159.37 83.5174 159.377 83.543 159.393 83.5636L159.443 83.6564C159.454 83.6826 159.472 83.7051 159.495 83.7208C159.519 83.7366 159.547 83.745 159.575 83.745C159.603 83.745 159.631 83.7366 159.655 83.7208C159.678 83.7051 159.696 83.6826 159.707 83.6564V83.585L159.543 83.7064C159.971 83.7064 160.4 83.585 160.836 83.5922C161.409 83.5996 161.979 83.6715 162.536 83.8064C163.636 83.9512 164.637 84.5171 165.329 85.385C165.879 86.1779 166.221 87.635 164.921 87.8564C164.224 87.9552 163.519 88.0006 162.814 87.9922C160.893 88.035 158.979 87.9922 157.064 87.935C156.476 87.9639 155.887 87.9279 155.307 87.8279C154.379 87.5922 153.75 86.285 153.636 85.4279C153.264 82.635 157.921 83.735 159.464 83.6493C159.593 83.5707 159.593 83.3707 159.45 83.3779Z" fill="#414355"/>
<path d="M168.557 75.5994C167.204 75.7484 165.837 75.6931 164.5 75.4351C163.286 75.1566 162.121 74.7209 160.929 74.3923C159.908 74.1416 158.855 74.05 157.807 74.1209C157.425 74.1511 157.047 74.2205 156.679 74.328C156.221 74.4423 155.729 74.8637 155.25 74.9637L155.15 74.8209C155.127 74.7726 155.086 74.7353 155.036 74.7172C154.986 74.6991 154.93 74.7017 154.882 74.7244C154.834 74.7472 154.797 74.7882 154.778 74.8384C154.76 74.8886 154.763 74.944 154.786 74.9923C153.8 77.078 152.471 79.7137 153.579 82.0351C154.8 84.578 157.829 85.8494 160.236 87.0351C161.714 87.7494 163.221 88.7494 163.736 90.3923C164.214 91.9066 163.464 93.5994 162.743 94.8923C162.021 96.1851 161.371 97.5137 160.707 98.8494C160.043 100.185 159.236 101.514 158.693 102.942C158.675 103 158.678 103.061 158.7 103.117C158.722 103.173 158.762 103.22 158.814 103.249C160.45 104.392 161.921 105.514 163.357 103.528C165.221 100.942 167 98.2423 168.714 95.5423C169.25 94.8291 169.636 94.0153 169.85 93.1494C169.931 92.3288 169.834 91.5003 169.564 90.7209C170.468 91.0149 171.343 91.3902 172.179 91.8423C172.396 91.3764 172.589 90.8995 172.757 90.4137C174.3 86.7494 176.471 83.2709 176.807 79.2066C177.186 74.9994 171.307 75.4423 168.557 75.5994ZM168.657 85.7351C167.971 84.3875 167.044 83.177 165.921 82.1637C166.186 82.2784 166.461 82.3669 166.743 82.428C167.446 82.5993 168.163 82.7022 168.886 82.7351C169.565 82.7851 170.248 82.737 170.914 82.5923C170.243 83.6851 169.421 84.6923 168.657 85.7137V85.7351Z" fill="#2A9CC8"/>
<path d="M187.164 62.7134C187.25 61.4705 185.771 61.4491 184.864 61.5991C183.957 61.7491 183.079 62.3491 182.157 62.592C181.686 62.7205 181.086 62.7848 180.764 63.2134C179.971 64.2705 180.443 65.4063 181.479 66.0205C181.526 66.0499 181.583 66.0623 181.638 66.0559C181.694 66.0494 181.746 66.0244 181.786 65.9848C182.657 66.3277 183.714 66.0848 184.643 65.9848C185.4 65.9134 186.279 65.8348 186.307 65.2705C186.307 65.1205 186.136 64.9277 186.029 64.8491C185.841 64.7158 185.637 64.6077 185.421 64.5277C186.264 64.1348 187.107 63.5705 187.164 62.7134Z" fill="#FFA348"/>
<path d="M181.65 62.8562C181.649 62.8174 181.639 62.7794 181.622 62.745C181.604 62.7105 181.579 62.6805 181.548 62.6571C181.517 62.6338 181.481 62.6177 181.443 62.6101C181.405 62.6025 181.366 62.6036 181.329 62.6133C180.311 62.8478 179.281 63.0219 178.243 63.1347C177.243 63.2133 175.343 63.6205 174.521 62.899C174.071 62.499 173.95 61.4705 173.864 60.9205C173.779 60.3705 173.571 59.5847 173.407 58.9347C173.145 57.7892 172.481 56.7756 171.536 56.0776C170.85 55.5573 170.075 55.1653 169.25 54.9205C168.718 54.7777 168.172 54.6985 167.621 54.6847C166.979 53.7419 165.843 53.9705 164.821 54.2276C163.8 54.4847 162.586 54.549 161.529 54.899C161.286 54.8999 161.045 54.9385 160.814 55.0133C160.77 54.9986 160.723 54.9986 160.679 55.0133C156.986 55.5633 154.521 57.9562 152.279 60.7276C151.097 62.171 150.115 63.7662 149.357 65.4705C148.848 66.4627 148.565 67.5557 148.529 68.6705C148.529 69.8919 149.493 70.8133 150.407 71.3419C151.541 71.9736 152.799 72.3514 154.093 72.449C154.093 73.7062 154.093 75.599 155.629 76.0205C156.622 76.2805 157.639 76.4408 158.664 76.499C160.05 76.6276 161.35 77.0633 162.714 77.2847C164.743 77.6133 166.643 76.8419 168.357 75.8562C168.391 75.8374 168.42 75.8093 168.439 75.7752C168.457 75.7411 168.466 75.7023 168.464 75.6633C168.486 73.3476 168.822 71.0455 169.464 68.8205C169.729 67.8419 169.871 66.8419 170.043 65.8419C170.081 65.599 170.141 65.36 170.221 65.1276C170.657 66.4419 171.443 67.7276 172.821 67.8776C174.184 68.0805 175.569 68.0733 176.929 67.8562C178.6 67.5133 180.114 66.6347 181.829 66.3419C181.865 66.3335 181.899 66.3149 181.925 66.2884C181.952 66.2619 181.97 66.2284 181.979 66.1919C182.121 65.0347 181.586 64.0062 181.65 62.8562Z" fill="#414355"/>
<path d="M160.814 59.7285C160.393 60.1999 159.907 60.657 159.457 61.0999C158.982 61.5749 158.479 62.0209 157.95 62.4356C156.903 63.1728 155.901 63.9718 154.95 64.8285C154.293 65.4642 153.521 66.3784 153.714 67.3642C153.914 68.457 155.336 68.9713 156.286 69.1642C157.047 69.2642 157.818 69.2642 158.579 69.1642C159.514 69.107 160.45 69.107 161.379 69.0356C161.415 69.0356 161.449 69.0213 161.475 68.9958C161.5 68.9704 161.514 68.9359 161.514 68.8999C161.514 68.8639 161.5 68.8294 161.475 68.8039C161.449 68.7785 161.415 68.7642 161.379 68.7642C159.993 68.6713 158.621 68.9499 157.236 68.9284C156.581 68.9198 155.938 68.7506 155.364 68.4356C154.879 68.1713 154.329 67.8856 154.229 67.2856C154.071 66.2927 155.229 65.4356 155.879 64.8713C156.736 64.157 157.679 63.4427 158.514 62.7284C158.989 62.3077 159.43 61.8517 159.836 61.3642C160.007 61.1499 160.179 60.9284 160.343 60.707C160.507 60.4856 160.707 60.0856 160.914 59.7856C160.922 59.7722 160.925 59.7565 160.922 59.7414C160.919 59.7263 160.91 59.7127 160.898 59.7032C160.886 59.6937 160.871 59.6888 160.856 59.6895C160.84 59.6902 160.826 59.6964 160.814 59.707V59.7285Z" fill="#2A9CC8"/>
<path d="M174 46.7292C173.735 46.5085 173.418 46.3586 173.079 46.2935C171.807 45.8935 171.507 44.515 171.121 43.4364C170.407 41.4078 167.814 40.5792 165.886 40.4435C164.686 40.4354 163.503 40.7329 162.45 41.3078C161.1 41.9435 160.093 42.565 159.479 43.9721C159.466 44.0031 159.462 44.0373 159.469 44.0703C159.475 44.1033 159.491 44.1338 159.514 44.1578C157.971 45.9364 157.857 47.7721 158.05 50.0935C158.112 51.2305 158.524 52.3207 159.229 53.215C160.078 54.1094 161.073 54.8533 162.171 55.415C162.5 55.615 162.279 56.415 162.457 56.7435C162.538 56.8994 162.65 57.0369 162.787 57.1475C162.923 57.2581 163.081 57.3394 163.25 57.3864C164.229 57.7078 165.636 57.9792 166.557 57.3864C167.114 57.015 167.214 56.2078 167.4 55.6292C167.586 55.0507 168.407 54.8292 168.864 54.5792C169.443 54.2703 169.991 53.9067 170.5 53.4935C171.362 52.7739 171.917 51.7517 172.05 50.6364C172.25 49.4435 173.557 49.5364 174.071 48.6292C174.256 48.3435 174.348 48.0079 174.335 47.668C174.323 47.3281 174.205 47.0003 174 46.7292Z" fill="#FFA348"/>
<path d="M163.907 68.4857C163.43 68.4395 162.949 68.4636 162.479 68.5571C162.007 68.6143 161.607 68.6357 161.05 68.7143C160.885 68.7458 160.734 68.8254 160.614 68.9428C160.364 69.1528 160.125 69.377 159.9 69.6143C159.734 69.8006 159.609 70.0195 159.533 70.2569C159.457 70.4942 159.431 70.7449 159.457 70.9928C159.504 71.187 159.612 71.3611 159.765 71.4897C159.918 71.6182 160.108 71.6944 160.307 71.7071C161.256 71.8237 162.215 71.8237 163.164 71.7071C164.086 71.5786 166.257 70.8928 165.586 69.4928C165.264 68.75 164.614 68.6143 163.907 68.4857Z" fill="#FFA348"/>
<path d="M169.036 46.1718C169.367 46.1718 169.636 45.8872 169.636 45.5361C169.636 45.185 169.367 44.9004 169.036 44.9004C168.704 44.9004 168.436 45.185 168.436 45.5361C168.436 45.8872 168.704 46.1718 169.036 46.1718Z" fill="#414355"/>
<path d="M172.593 40.4008C170.604 38.7822 168.082 37.9646 165.521 38.1079C163.66 38.0884 161.823 38.5353 160.179 39.4079C156.607 41.2508 155.071 45.8365 155.607 49.6508C155.615 49.6799 155.63 49.7065 155.652 49.7278C155.673 49.7491 155.699 49.7644 155.729 49.7722C156.493 50.0439 157.273 50.2705 158.064 50.4508C158.193 50.4508 158.286 50.4508 158.293 50.3436C158.408 48.5718 159.045 46.8738 160.125 45.464C161.204 44.0542 162.677 42.9957 164.357 42.4222C165.705 42.0102 167.134 41.9439 168.514 42.2293C169.067 42.3563 169.611 42.5185 170.143 42.715C170.721 42.8936 170.857 42.715 171.007 42.4936C171.55 41.7793 171.793 41.5436 172.436 40.8008C172.5 40.715 172.7 40.4936 172.593 40.4008Z" fill="#414355"/>
<path d="M130.036 115.314H127.621V124.479H130.036V115.314Z" fill="#858FA9"/>
<path d="M176.814 116.279H174.4V125.444H176.814V116.279Z" fill="#858FA9"/>
<path d="M207.2 113.385H204.786V122.549H207.2V113.385Z" fill="#858FA9"/>
<path d="M225.85 111.808L224.289 120.838L226.668 121.249L228.229 112.219L225.85 111.808Z" fill="#858FA9"/>
<path d="M78.1702 116.625L75.7867 117.01L77.2472 126.057L79.6306 125.672L78.1702 116.625Z" fill="#858FA9"/>
<path d="M55.5026 114.699L53.1191 115.084L54.5796 124.131L56.963 123.746L55.5026 114.699Z" fill="#858FA9"/>
</g>
<defs>
<clipPath id="clip0_1887_30785">
<rect width="250" height="250" fill="white" transform="translate(0.5)"/>
</clipPath>
</defs>
</svg>
