<svg width="243" height="242" viewBox="0 0 243 242" fill="none" xmlns="http://www.w3.org/2000/svg">
<path d="M184.42 50.2317C184.346 49.4842 183.988 48.7936 183.419 48.3032C182.85 47.8127 182.114 47.56 181.364 47.5974H180.963C179.2 47.5974 177.672 48.9387 177.672 50.2317V68.0637C177.672 69.6816 178.64 70.9469 179.905 71.023L182.035 71.2304C183.805 71.2304 184.448 69.3635 184.448 68.0637V50.2317H184.42Z" fill="#858FA9"/>
<path d="M174.318 44.8319L168.095 44.1958L155.442 42.9582L153.589 35.0275L162.384 30.1875L170.19 25.707C170.19 25.707 179.946 26.7027 180.43 33.1122C180.963 40.4967 174.318 44.8319 174.318 44.8319Z" fill="#DCDDE0"/>
<path d="M224.246 30.2638L174.18 44.9014C175.542 43.3684 176.525 41.5361 177.047 39.5528C177.57 37.5696 177.618 35.4912 177.188 33.4859C176.24 28.7496 170.273 25.7281 170.273 25.7281L225.456 8.29715C225.456 8.29715 232.509 6.69303 230.165 18.5718C228.499 26.9657 224.246 30.2638 224.246 30.2638Z" fill="#2A9CC8"/>
<path d="M156.175 38.658C156.583 41.2578 155.85 43.5326 154.543 43.7331C154.122 43.8022 152.78 44.1203 152.656 43.9682C152.111 42.49 151.704 40.9647 151.439 39.4117C151.254 37.8563 151.198 36.2883 151.273 34.7238C151.321 34.5717 152.151 34.468 153.071 34.3366C154.377 34.1361 155.767 36.0652 156.175 38.658Z" fill="#414355"/>
<path d="M151.39 34.6129C152.697 34.4055 154.087 36.3415 154.495 38.9412C154.903 41.541 154.177 43.7812 152.87 44.0163C151.563 44.2514 150.167 42.2808 149.759 39.688C149.351 37.0951 150.084 34.8134 151.39 34.6129Z" fill="#FFA348"/>
<path d="M180.721 55.5075L174.498 54.74L161.893 53.2396L160.22 45.2812L169.112 40.6417L177.008 36.3203C177.008 36.3203 186.736 37.5234 187.089 43.926C187.476 51.3105 180.721 55.5075 180.721 55.5075Z" fill="#DCDDE0"/>
<path d="M230.939 41.9637L180.583 55.5779C181.972 54.0755 182.989 52.2681 183.552 50.301C184.115 48.334 184.209 46.2622 183.825 44.2523C182.968 39.5022 177.056 36.3562 177.056 36.3562L232.592 20.0454C232.592 20.0454 239.679 18.5865 237.093 30.4168C235.261 38.7209 230.939 41.9637 230.939 41.9637Z" fill="#2A9CC8"/>
<path d="M162.709 48.9671C163.062 51.5738 162.287 53.8071 160.974 54.0076C160.552 54.0629 159.204 54.3533 159.079 54.2012C158.565 52.7082 158.188 51.1715 157.952 49.6101C157.802 48.052 157.779 46.4842 157.883 44.9223C158.459 44.6984 159.07 44.579 159.688 44.5696C161.001 44.4106 162.35 46.3604 162.709 48.9671Z" fill="#414355"/>
<path d="M158.042 44.7907C159.356 44.6109 160.704 46.5746 161.057 49.1813C161.409 51.788 160.642 54.0213 159.328 54.2218C158.014 54.4223 156.666 52.431 156.307 49.8312C155.947 47.2315 156.763 44.9428 158.042 44.7907Z" fill="#FFA348"/>
<path d="M117.676 235.985C117.676 234.43 115.249 233.386 114.358 233.123C112.645 232.761 111.056 231.96 109.746 230.8C108.996 230.207 108.453 229.391 108.197 228.47L107.948 226.852C106.966 226.969 99.0769 225.296 98.1919 225.061C97.7563 224.909 96.9819 224.273 96.8091 226.036C96.6693 227.536 96.6231 229.044 96.6708 230.551C96.6708 230.717 96.6708 230.938 96.7261 231.173C103.08 234.319 109.483 237.258 116.287 238.571C117.227 238.067 117.676 237.458 117.676 235.985Z" fill="#FFA348"/>
<path d="M96.7814 231.172C96.8261 231.803 97.0256 232.413 97.3622 232.949C98.2679 233.951 100.328 234.753 101.511 235.348C104.173 236.662 106.766 238.273 109.759 238.805C112.117 239.22 114.081 239.78 116.176 238.66L116.328 238.57C109.538 237.256 103.136 234.318 96.7814 231.172Z" fill="#FCC18B"/>
<path d="M95.4954 234.816C95.4331 233.654 94.0641 232.541 93.2136 232.278C91.4643 231.739 90.1644 231.255 88.8507 229.948C88.1272 229.347 87.6098 228.535 87.3711 227.625L87.136 226C86.1956 226.125 78.6798 224.451 77.8363 224.209C77.4214 224.064 76.6816 223.428 76.5502 225.191C76.414 226.671 76.3678 228.158 76.4119 229.644C81.9434 233.516 88.104 237.194 94.313 237.436C94.6955 237.118 95.0006 236.716 95.2054 236.262C95.4102 235.808 95.5094 235.314 95.4954 234.816Z" fill="#FFA348"/>
<path d="M76.412 229.707C76.4134 230.542 76.6225 231.364 77.0204 232.099C77.8847 233.109 79.8415 233.911 80.9823 234.498C83.5199 235.812 85.442 237.354 88.2976 237.886C90.5448 238.301 92.9164 238.426 94.0088 237.672C94.116 237.601 94.2177 237.523 94.3131 237.437C88.0902 237.195 81.9227 233.517 76.412 229.645V229.707Z" fill="#FCC18B"/>
<path d="M111.322 123.227V122.847L110.949 122.792C110.81 122.792 110.195 122.543 109.822 122.405C109.448 122.266 109.13 122.142 108.971 122.107C106.655 121.589 103.405 119.279 100.785 117.426C99.7753 116.735 98.8211 116.043 98.0191 115.525C95.6198 114.011 93.2759 112.448 91.0149 110.934C88.7539 109.42 86.6105 107.988 84.3426 106.55L83.3469 105.921L83.0704 105.748L82.8284 105.976C82.6348 106.163 77.9884 110.574 75.9832 114.446C73.0516 120.026 71.4267 127.68 71.1432 132.783C70.4518 144.447 71.6411 156.291 72.8096 167.776C73.2244 171.862 73.6531 176.073 73.9919 180.222C74.6833 188.989 74.5381 197.964 74.3791 206.641C74.2961 211.364 74.2063 216.252 74.2616 221.037C74.2616 224.646 75.2088 225.877 78.5 226.866C80.3916 227.381 82.3227 227.74 84.2735 227.937C84.3633 227.937 84.6468 227.937 85.0271 227.937C85.913 227.967 86.7989 227.879 87.6615 227.675L87.9311 227.578V227.294C87.9311 227.294 88.0763 223.713 88.1316 222.565C88.2837 219.315 88.2146 216.003 88.1316 212.802C88.0901 210.9 88.0487 208.93 88.0487 206.994C88.0487 203.233 88.1247 199.43 88.1869 195.751C88.2561 191.762 88.3252 187.634 88.3252 183.554C88.3252 175.665 88.3252 165.84 89.1342 156.637C89.4177 153.436 89.5283 150.193 89.6389 147.054C89.7081 145.09 89.7772 143.058 89.8879 141.059C89.9501 139.932 89.9293 138.059 89.8879 136.613C90.4103 138.129 90.7808 139.692 90.9941 141.281L91.1601 142.733C91.492 145.761 91.8515 148.886 91.976 151.078C92.1627 154.196 92.46 157.82 92.778 161.657C93.1721 166.497 93.587 171.537 93.8359 176.177C94.4444 187.392 95.0321 199.354 95.0321 211.481C95.0321 216.536 95.7788 225.766 95.8618 226.796L95.8203 226.921L95.9448 227.108C96.3734 227.737 104 227.799 103.958 227.834C105.204 227.853 106.449 227.783 107.685 227.626L108.038 227.578V227.218C108.038 227.218 108.086 225.144 108.19 223.858C108.363 221.597 108.432 219.108 108.501 216.695C108.501 215.782 108.55 214.897 108.577 214.074C109.269 195.157 109.773 181.134 110.589 161.242L110.7 158.622C110.976 152.039 111.218 146.349 111.018 139.531C110.9 134.871 111.322 123.345 111.322 123.227Z" fill="#858FA9"/>
<path d="M130.931 67.9888C118.776 72.2757 123.54 51.6504 125.054 45.7801C126.52 40.1035 130.157 35.0146 135.578 32.7052C137.405 32.01 139.312 31.5455 141.254 31.3224C148.044 30.2299 151.48 35.5747 152.082 41.7422C152.455 45.5243 151.854 49.2995 151.045 52.9503C149.067 61.8766 138.585 65.2853 130.931 67.9888Z" fill="#858FA9"/>
<path d="M171.131 50.7438C170.232 49.361 168.22 52.7213 167.639 52.3341C167.203 52.0437 169.464 48.5244 168.434 48.5728C166.215 48.6834 163.401 52.5761 162.723 54.7126C162.287 56.0955 161.997 57.5475 161.582 59.2C161.382 60.009 161.16 60.8387 160.932 61.6753C163.359 63.155 166.249 64.3996 168.766 65.8239C168.96 65.1325 169.16 64.441 169.354 63.7911L169.52 63.231L169.582 63.0098C169.775 62.3184 170.059 61.5578 170.363 60.7281C170.889 59.2692 172.064 57.914 172.396 56.3375C172.686 54.9546 173.143 53.0048 171.179 54.5882C170.073 55.5078 171.518 51.3385 171.131 50.7438Z" fill="#858FA9"/>
<path d="M136.435 69.0469C138.267 65.4169 132.024 61.4965 129.092 60.5769C124.542 59.1456 119.135 59.4637 114.143 59.4637C100.176 59.4637 86.0228 60.086 72.4501 61.9943C62.9153 63.3357 55.6069 67.2008 47.289 72.103C42.449 74.9655 36.4267 75.5602 30.8607 74.689C26.1935 73.9353 20.8488 70.3814 16.0364 71.3701C11.0789 72.4003 10.2699 80.0337 9.03918 84.2307C13.1878 86.6092 19.6595 87.1278 24.4304 87.6878C30.1416 88.3239 35.8251 89.209 41.5502 87.6878C46.4719 86.4928 51.1708 84.518 55.4686 81.8383C59.1678 79.4529 63.5099 76.3069 68.1632 76.9983C72.6921 77.6898 76.972 80.255 81.4041 80.9671C86.8438 81.7951 92.3859 81.6734 97.784 80.6076C108.556 78.478 115.492 66.454 127.405 66.5647C130.62 66.7115 133.778 67.467 136.711 68.7911C136.735 68.9376 136.724 69.0875 136.679 69.229C136.635 69.3706 136.558 69.4999 136.456 69.607" fill="#FFA348"/>
<path d="M160.911 61.6758C159.494 66.8269 157.454 72.469 154.267 76.7835C152.594 79.0445 151.321 79.9641 149.89 79.9641C148.626 79.8583 147.422 79.3767 146.433 78.5812C143.563 76.6106 141.192 73.997 138.903 71.4733C138.246 70.7819 137.596 70.0282 136.926 69.323L136.642 69.0188C134.222 66.4397 131.719 63.7777 128.02 63.114C126.463 62.8169 124.883 62.6504 123.298 62.6161C122.854 62.6124 122.41 62.6401 121.97 62.6991C118.955 63.1929 116.12 64.4603 113.742 66.3775C111.792 67.9133 109.998 69.6362 108.384 71.5217C107.07 73.1397 105.514 75.214 103.862 77.3989C102.05 79.805 100.176 82.2942 98.4408 84.4307C93.0062 91.1168 88.7608 96.3025 83.6857 102.193C83.3969 102.5 83.0873 102.787 82.7592 103.051C81.8535 103.832 80.8232 104.724 80.7679 105.678C80.7575 105.87 80.7871 106.062 80.855 106.242C80.9228 106.422 81.0274 106.585 81.162 106.722C82.8565 108.474 84.6453 110.131 86.5206 111.687C91.0886 115.296 95.9163 118.564 100.965 121.464C104.414 123.196 108.176 124.218 112.027 124.471H112.325L112.435 124.209C114.046 120.482 116.764 116.776 119.398 113.187C120.421 111.804 121.382 110.484 122.274 109.184C124.543 105.783 126.621 102.258 128.497 98.6257C130.263 95.1576 132.275 91.8209 134.52 88.6415C135.418 89.0679 136.287 89.5554 137.119 90.1004C140.334 92.0641 145.195 95.0303 149.129 95.0303C150.027 95.0471 150.916 94.8579 151.729 94.4772C157.316 91.7114 160.462 85.8896 162.536 82.0314L162.709 81.7203C165.475 76.5415 167.148 71.3074 168.752 65.8174C166.249 64.4 163.366 63.1554 160.911 61.6758Z" fill="#414355"/>
<path d="M144.048 33.9207C142.022 34.6121 139.111 37.8757 138.475 42.6673C137.949 46.6706 135.909 50.0932 133.752 52.7552C128.601 59.1025 123.263 61.4465 113.936 62.9123C107.872 63.8596 103.281 62.8017 97.7149 62.8017C94.044 62.6934 90.4052 63.5139 87.136 65.1871C79.6271 68.9416 72.0629 72.9864 63.4408 70.3175C58.8013 68.8862 54.2724 65.3046 53.422 58.3212C52.4401 50.2177 56.3121 45.4192 63.9317 43.2342C68.3914 41.9551 74.9047 43.4624 79.3575 42.1764C83.6443 40.9318 85.8569 37.606 89.5699 35.2621C92.9757 33.1633 96.8882 32.0305 100.889 31.9847C105.224 31.881 109.186 34.059 113.21 33.4782C117.891 32.7867 120.214 29.2397 124.653 27.8914C127.771 26.9511 131.284 25.7757 137.348 26.8336C142.678 27.767 148.984 31.8464 148.846 33.5335C147.244 33.1717 145.57 33.3068 144.048 33.9207Z" fill="#414355"/>
<path d="M16.1125 73.1401C14.0382 73.2299 8.67962 72.0614 7.51111 70.1738" stroke="#FCC18B" stroke-width="1.224" stroke-miterlimit="10"/>
<path d="M17.7857 71.4447C15.7114 71.5346 10.3528 70.3661 9.18433 68.4785" stroke="#FCC18B" stroke-width="1.224" stroke-miterlimit="10"/>
<path d="M13.575 74.6751C12.3235 74.8479 10.8853 74.3017 9.55775 74.0389C8.14865 73.8148 6.7609 73.4724 5.40918 73.0156" stroke="#FCC18B" stroke-width="1.224" stroke-miterlimit="10"/>
<path d="M12.4824 76.4864C9.81353 76.4864 6.98559 76.9565 4.55176 75.7949" stroke="#FCC18B" stroke-width="1.224" stroke-miterlimit="10"/>
<path d="M11.6735 79.0227C9.5992 79.1334 5.16714 78.9882 3.37634 77.9648" stroke="#FCC18B" stroke-width="1.224" stroke-miterlimit="10"/>
<path d="M2.57434 82.6192C3.88472 82.3944 5.22666 82.432 6.5224 82.7298C7.76005 83.0133 9.01154 84.2233 10.0833 83.8568" stroke="#FCC18B" stroke-width="1.224" stroke-miterlimit="10"/>
<path d="M10.4012 81.0018C9.11519 81.5826 4.90439 80.0822 2.79553 80.4003" stroke="#FCC18B" stroke-width="1.224" stroke-miterlimit="10"/>
<path d="M220.008 224.976C220.008 224.976 213.024 233.654 197.792 233.868C182.56 234.083 175.362 225.613 175.362 225.613L176.206 175.256L218.1 175.892L220.008 224.976Z" fill="#2A9CC8"/>
<path d="M197.087 185.843C208.772 185.843 218.245 181.815 218.245 176.847C218.245 171.879 208.772 167.852 197.087 167.852C185.402 167.852 175.929 171.879 175.929 176.847C175.929 181.815 185.402 185.843 197.087 185.843Z" fill="#DCDDE0"/>
<path d="M203.289 176.238H191.161L192.855 74.543L200.185 75.2482L203.289 176.238Z" fill="#2A9CC8"/>
<path d="M175.736 213.956C186.667 222.515 209.139 223.815 219.144 212.967C220.25 211.771 218.452 209.966 217.346 211.176C208.212 221.077 186.992 219.57 177.526 212.165C176.254 211.169 174.443 212.953 175.736 213.956Z" fill="#858FA9"/>
<path d="M210.134 37.4414H207.714C205.377 37.4414 203.904 38.7205 203.904 40.8985V70.8236L181.495 65.2921L179.462 70.948L203.967 79.1691C203.967 79.1691 205.585 79.66 206.241 79.8605C207.424 80.1675 208.655 80.238 209.865 80.068C212.112 79.8467 213.211 78.45 213.211 76.8943V40.94C213.211 38.6514 212.886 37.4414 210.134 37.4414Z" fill="#2A9CC8"/>
<path d="M206.442 77.2179H203.904V40.2265C203.938 39.8479 204.051 39.4805 204.236 39.1482C204.42 38.816 204.673 38.5261 204.976 38.2974C206.069 37.5576 208.738 37.7304 208.738 37.7304C208.184 37.8524 207.644 38.0308 207.126 38.2628C206.435 38.6155 206.435 40.1643 206.435 40.1643V77.2179H206.442Z" fill="#DCDDE0"/>
<path d="M162.488 56.4967C163.38 53.7725 164.216 50.9031 167.038 49.5824C168.123 49.0708 167.321 50.1148 167.224 50.2739C166.74 51.1312 166.471 52.12 166.028 53.0396C165.516 54.0491 165.039 54.8511 165.433 55.9712C165.461 56.0575 165.516 56.1327 165.589 56.1861C165.662 56.2394 165.751 56.2682 165.841 56.2682C165.932 56.2682 166.02 56.2394 166.094 56.1861C166.167 56.1327 166.221 56.0575 166.249 55.9712C166.652 54.7828 167.235 53.6635 167.978 52.6524C168.185 52.3965 170.446 50.2047 170.785 51.1105C171.172 52.1338 169.997 53.3369 169.644 54.215C169.229 55.2521 168.904 56.2893 168.462 57.3333L169.63 57.8243C169.727 57.4578 169.831 57.0913 169.955 56.7318L170.453 55.6532C170.629 55.2682 170.929 54.9538 171.305 54.7605C171.682 54.5673 172.112 54.5067 172.527 54.5884C172.645 55.6463 171.67 57.278 171.338 58.2045C170.446 60.6868 169.146 63.0445 168.213 65.5406C168.082 65.8794 168.649 66.1214 168.801 65.7895C169.706 63.7913 170.508 61.7861 171.463 59.8156C172.289 58.1727 172.847 56.4079 173.115 54.5884C173.137 54.4067 173.115 54.2225 173.051 54.0511C172.987 53.8796 172.883 53.7259 172.748 53.6028C172.613 53.4796 172.45 53.3906 172.273 53.3432C172.097 53.2957 171.911 53.2912 171.732 53.33C170.349 53.6964 169.098 56.2063 168.469 57.3333C168.403 57.4785 168.393 57.6429 168.442 57.7948C168.49 57.9466 168.593 58.075 168.731 58.1551C168.869 58.2352 169.032 58.2613 169.188 58.2283C169.343 58.1952 169.482 58.1055 169.575 57.9764C170.647 56.5313 170.536 54.7474 171.241 53.1364C171.67 52.1338 171.795 51.1105 171.062 50.2393C170.432 49.4995 168.877 51.0137 168.469 51.3248C167.124 52.4971 166.099 53.991 165.489 55.667L166.256 55.992C166.675 55.0438 167.149 54.1203 167.674 53.2263C168.054 52.4519 168.241 51.5945 168.621 50.8201C169.001 50.0457 169.361 49.3197 168.662 48.6006C168.596 48.5337 168.513 48.4856 168.422 48.4613C168.331 48.437 168.235 48.4374 168.144 48.4623C166.685 48.8426 165.115 50.4467 164.237 51.6221C163.142 53.0567 162.446 54.755 162.218 56.5451C162.218 56.7041 162.446 56.718 162.495 56.5451L162.488 56.4967Z" fill="#414355"/>
</svg>
