<svg width="251" height="250" viewBox="0 0 251 250" fill="none" xmlns="http://www.w3.org/2000/svg">
<path d="M63.6857 33.835C55 33.835 53.7929 49.285 54.65 56.985C55.1 61.0493 55.6214 64.8422 56.2643 68.8136C57.3786 75.6993 57.9572 81.8208 58.6643 88.7636C59.3214 95.1922 59.0857 101.556 53.1643 105.535C59.1 104.906 65.5143 103.828 70.9643 102.792C77.3143 86.8493 83.5857 70.685 83.7 53.2565C83.7572 44.9779 81.5572 33.135 71.15 32.9922C68.7643 32.9922 67.5786 33.3422 65.1214 33.6565L63.6857 33.835Z" fill="#2A9CC8"/>
<path d="M76.7214 110.714C84.4072 110.642 92.6643 110.078 98.9072 109.635C101.764 109.435 104 104.578 105.914 102.621C109.686 98.7639 109.993 98.7854 113.257 94.4996C120.143 85.4568 128.029 72.1425 124.071 60.3925C121.8 53.6782 115.207 50.5782 108.679 53.5639C99.3929 57.8496 94.3929 69.0496 91.2429 78.1068C89.4 83.3782 88.0143 88.8211 86.5572 94.1711C85.7826 97.4745 84.7067 100.7 83.3429 103.807C82.0143 106.535 79.5429 107.378 77.3571 109.421L76.7214 110.714Z" fill="#2A9CC8"/>
<path d="M128.193 124.415C135.157 124.415 146.893 123.886 148.779 123.386C152.55 122.386 152.35 116.822 152.8 113.672C153.514 108.479 152.293 102.301 147.493 99.3865C141.064 95.4579 132.329 99.4365 126.479 102.672C119.064 106.772 110.7 112.479 105.764 119.551C104.607 121.215 103.986 123.029 102.643 124.551" fill="#2A9CC8"/>
<path d="M219.786 178.821C217.986 175.328 216.579 172 215.343 169.071C212.086 161.357 209.514 155.264 202.143 151.328C200.662 150.695 199.128 150.198 197.557 149.843C193.643 148.778 188.771 147.457 188.271 145.3C186.993 140 191.471 136.557 195.071 133.793C196.25 132.965 197.341 132.019 198.329 130.971C205.057 122.9 206.764 109.185 201.979 101.621C198.179 95.6283 194.836 93.5997 188.579 93.5997C185.139 93.708 181.708 94.0037 178.3 94.4855C176.986 94.6426 175.586 94.8069 174.086 94.9712C169.893 95.4426 165.829 95.9997 161.721 96.6283C161.606 95.5759 161.81 94.5132 162.307 93.5783C164.764 89.1783 167.107 85.6783 169.821 81.6283C170.536 80.5354 171.307 79.4069 172.093 78.2212C175.464 73.1212 178.943 66.7926 179.15 58.7497C179.336 51.7426 175.536 46.4783 169.236 44.9926C167.401 44.6165 165.53 44.4464 163.657 44.4854C156.929 44.4854 147.864 45.914 141.621 47.0212C140.143 47.2854 138.629 47.5712 137.093 47.8712C137.614 36.364 136.75 21.8354 125.736 20.7711C124.871 20.6854 123.921 20.6426 122.921 20.6426C117.071 20.6426 110.136 22.0712 103.529 23.4569C99.6285 24.2997 96.5142 25.0283 93.2214 25.8069C90.5785 26.4212 87.8499 27.064 84.6499 27.7712C79.1714 28.9926 74.1499 30.4997 68.8357 32.0569C67.0857 32.5783 65.6714 32.9426 63.8785 33.4854L62.2571 33.9569L63.8071 34.0212C64.5214 34.0926 66.1499 34.2712 66.9071 34.4283C70.4785 35.1426 72.6214 36.1854 76.2571 41.9212C79.5285 47.114 79.8857 55.2926 78.9142 61.0212C78.1214 65.6997 76.5642 69.5926 74.9142 73.7283C73.8142 76.4712 72.6857 79.314 71.7785 82.4283C71.4857 83.4426 71.1142 84.5712 70.7285 85.8426C68.8071 91.9355 66.1857 100.278 67.4571 105.5C68.2999 108.957 71.2785 111.021 75.4214 111.021C78.3635 111.009 81.2181 110.019 83.5357 108.207C87.2357 105.207 88.9357 100.143 90.6357 94.314C91.9 89.9712 92.7785 86.2283 93.4928 82.8855C95.1785 75.3997 96.1285 70.0283 100.357 63.2569C102.921 59.1426 105.879 55.2283 110.743 54.1497C113.171 53.614 116.95 53.9569 118.064 54.6069C121.521 56.6283 123.214 60.964 123.486 64.264C123.757 67.564 122.293 76.8926 119.5 81.5712C115.336 88.5426 111.457 92.9355 104.964 100.093L103.357 101.878C99.7857 105.707 96.7285 109.021 95.55 114.335C94.8357 117.693 95.2 120.335 96.6928 122.193C98.0571 123.893 100.314 124.828 103.036 124.828C104.89 124.844 106.719 124.397 108.357 123.528C116.879 118.735 121.471 114.164 128.021 107.207L128.843 106.307C130.629 104.314 132.35 102.4 137.743 101.164L140.386 101.4C141.715 101.476 143.011 101.851 144.176 102.496C145.34 103.142 146.345 104.041 147.114 105.128C149.414 108.435 149.814 113.6 148.236 119.671C146.243 127.385 140.779 130.8 134.457 134.757C131.553 136.493 128.769 138.421 126.121 140.528C124.342 142.033 122.935 143.929 122.011 146.068C121.087 148.206 120.67 150.53 120.793 152.857C121.086 157.143 123.421 160.843 127.379 163.285C130.236 165.05 133.907 165.928 137.443 166.778C142.629 168.014 147.993 169.3 151.121 173.393C153.114 176 154.286 179.307 155.407 182.5C155.979 184.114 156.564 185.778 157.243 187.3C159.529 192.428 163.393 196.585 167.15 200.464L167.279 200.593L167.443 200.521C174.029 197.893 180.771 196.493 187.293 195.135C193.005 194.06 198.645 192.629 204.179 190.85C208.329 189.421 210.607 187.1 213.007 184.628C214.921 182.466 217.168 180.623 219.664 179.171L219.9 179.05L219.786 178.821ZM150.907 65.964C156.3 69.7354 162.771 71.8926 168.707 75.1355C162.757 71.864 156.286 69.7069 150.893 65.9354L150.907 65.964Z" fill="#DCDDE0"/>
<path d="M55.5643 63.0496C55.4786 62.521 55.4215 62.1853 55.4072 62.0996L55.35 61.8281L54.1786 62.1424C51.5357 62.8567 42.8357 64.371 38.9143 64.9996C35.8357 65.5067 32.85 66.0567 29.9715 66.5924C24.9286 67.521 20.1715 68.4067 14.9215 69.0424C14.3786 69.1138 13.65 69.1853 12.7786 69.271C9.77942 69.51 6.79766 69.9323 3.85002 70.5353L3.41431 70.6424L3.71431 70.9853C8.76431 76.6996 13.1286 81.2139 17.4643 85.2281C24.0429 91.3139 31.9715 98.1496 40.9429 102.5C44.2572 104.1 48.0857 105.857 51.5215 105.857C52.8799 105.896 54.2223 105.555 55.3973 104.872C56.5723 104.19 57.5331 103.192 58.1715 101.992C61.3786 96.4924 60.4286 86.1139 58.4715 78.2853C57.1643 72.8996 56 65.7138 55.5643 63.0496Z" fill="#DCDDE0"/>
<path d="M119.243 51.5505C118.921 47.4791 119.107 42.1719 117.45 37.5219C115.2 31.2505 110.071 26.1934 110.071 26.1934L75.6428 34.4648C75.6428 34.4648 81.2428 40.8934 82.9214 48.3148C84.6796 56.5947 83.5372 65.2273 79.6857 72.7648L97.6428 68.3648C98.9855 65.4881 100.613 62.7531 102.5 60.2005C105.621 55.6148 108.643 53.5719 119.243 51.5505Z" fill="white"/>
<path d="M202.007 181.372L169.771 191.622L157.771 169.508L188.114 160.736L202.007 181.372Z" fill="white"/>
<path d="M197.55 152.378L162.757 161.949C162.757 161.949 143.607 161.278 142.129 153.592C141.2 148.778 146.714 141.992 146.714 141.992L187.843 134.285C187.843 134.285 181.507 140.892 182.843 146.285C184.264 151.942 197.55 152.378 197.55 152.378Z" fill="#FCC18B"/>
<path d="M196.743 124.549L143.743 133.364C143.743 133.364 151.6 124.728 152.507 117.178C153.414 109.628 149.993 102.614 149.993 102.614L192.7 96.9492C192.7 96.9492 198.357 100.999 200.5 107.292C203.486 115.785 196.743 124.549 196.743 124.549Z" fill="white"/>
<path d="M170.314 52.0859C170.314 52.0859 160.6 53.1645 151.793 54.0645C141.164 55.1502 128.221 58.9217 128.221 58.9217C129.232 63.435 129.459 68.0885 128.893 72.6788C127.95 80.2288 120.671 90.3431 120.671 90.3431L163.464 83.3788C163.464 83.3788 173.893 73.4859 173.893 61.0788C173.907 54.4145 170.314 52.0859 170.314 52.0859Z" fill="#FCC18B"/>
<path d="M202.007 181.371L169.771 191.621L165.321 183.599L197.014 173.906L202.007 181.371Z" fill="#FCC18B"/>
<path d="M120.686 90.342L163.479 83.3777C164.955 81.9182 166.316 80.3469 167.55 78.6777C152.743 80.8206 139.493 82.792 123.693 85.6492C122.057 88.4277 120.686 90.342 120.686 90.342Z" fill="#FFA348"/>
<path d="M247.05 196.742L247.721 200.121L176.65 228.035L175.3 225.742L165.864 198.907L219.893 179.057L247.05 196.742Z" fill="#DCDDE0"/>
<path d="M176.514 228.121C178.586 228.121 204.786 217.157 211.043 214.814C217.471 212.414 224.143 209.299 230.55 206.814C234.371 205.335 244.979 201.549 247.693 200.121C248.907 199.478 247.879 196.157 246.614 196.657C234.471 201.464 223.143 206.207 211.086 211.128C205.25 213.507 190.693 218.949 187.814 220.214C184.936 221.478 176.743 224.678 175.136 225.335C174.621 225.564 176.514 228.121 176.514 228.121Z" fill="#858FA9"/>
<path d="M170.393 200.164L171.257 202.814L174.214 201.707C173.75 200.993 173.5 200.085 173.05 199.164L170.393 200.164Z" fill="#F8F8FA"/>
<path d="M176.721 197.785L173.943 198.828C174.393 199.607 174.95 200.499 175.371 201.264L178.279 200.178C177.86 199.32 177.337 198.516 176.721 197.785Z" fill="#F8F8FA"/>
<path d="M177.814 197.371C178.336 198.086 178.743 198.907 179.378 199.714L182.143 198.736C181.539 197.995 181.057 197.163 180.714 196.271L177.814 197.371Z" fill="#F8F8FA"/>
<path d="M184.393 194.893L181.979 195.8C182.593 196.65 182.786 197.671 183.35 198.278L185.971 197.3C185.562 196.426 185.031 195.616 184.393 194.893Z" fill="#F8F8FA"/>
<path d="M188.214 193.449L185.643 194.421C186.221 195.135 186.671 196.035 187.2 196.835L190.007 195.785C189.357 194.928 188.921 194.349 188.214 193.449Z" fill="#F8F8FA"/>
<path d="M192.071 192L189.457 192.979C190.171 193.75 190.657 194.521 191.307 195.293L193.721 194.393C193.307 193.479 192.443 192.8 192.071 192Z" fill="#F8F8FA"/>
<path d="M196.507 190.406L193.071 191.721C193.786 192.492 194.207 193.242 194.857 194.013L198.021 192.799C197.643 191.885 196.886 191.213 196.507 190.406Z" fill="#F8F8FA"/>
<path d="M200.7 188.742L197.35 189.999C198.064 190.806 198.629 191.585 199.207 192.328L202.629 191.042C202.055 190.22 201.409 189.451 200.7 188.742Z" fill="#F8F8FA"/>
<path d="M201.857 188.308C202.357 189.108 203.064 189.908 203.55 190.708L206.236 189.701C205.651 188.888 205.021 188.108 204.35 187.365L201.857 188.308Z" fill="#F8F8FA"/>
<path d="M212.643 184.229L209.786 185.314C210.343 186.264 211.007 186.878 211.507 187.714L214.514 186.5C213.836 185.757 213.357 184.843 212.643 184.229Z" fill="#F8F8FA"/>
<path d="M216.3 182.957L213.443 183.936C214.357 184.978 215.536 186.314 215.436 186.128L218.336 185.078C217.643 184.471 217.136 183.714 216.3 182.957Z" fill="#F8F8FA"/>
<path d="M219.672 181.814L217.143 182.622C218.05 183.5 218.436 183.979 219.2 184.707L221.964 183.8L219.672 181.814Z" fill="#F8F8FA"/>
<path d="M208.414 185.836L205.593 186.9C206.186 187.507 206.528 188.586 207.528 189.214L210.386 188.136C209.728 187.515 209.321 186.565 208.414 185.836Z" fill="#F8F8FA"/>
<path d="M172.2 204.287L173.414 206.98L176.693 205.715C176.314 204.789 175.807 203.921 175.186 203.137L172.2 204.287Z" fill="#F8F8FA"/>
<path d="M192.057 196.672C192.771 197.515 192.971 198.587 193.486 199.258L197.771 197.622C197.321 196.732 196.8 195.88 196.214 195.072L192.057 196.672Z" fill="#F8F8FA"/>
<path d="M200.7 193.35L197.05 194.778C197.682 195.546 198.248 196.365 198.743 197.228L202.414 195.8C202.02 194.873 201.436 194.038 200.7 193.35Z" fill="#F8F8FA"/>
<path d="M204.979 191.715L201.743 192.958C202.214 193.779 202.943 194.601 203.464 195.429L206.814 194.136C206.281 193.273 205.666 192.462 204.979 191.715Z" fill="#F8F8FA"/>
<path d="M206.043 191.3C206.645 192.135 207.301 192.93 208.007 193.679L211.164 192.457C210.569 191.619 209.913 190.827 209.2 190.086L206.043 191.3Z" fill="#F8F8FA"/>
<path d="M222.771 184.879C222.771 184.879 220.986 185.593 220.971 185.593L220.143 185.915C220.893 186.629 221.65 187.486 222.4 188.236L225.607 186.922L222.771 184.879Z" fill="#F8F8FA"/>
<path d="M191.114 197.051L187.086 198.572C187.543 199.608 188.222 200.194 188.514 201.165L192.722 199.551C192.27 198.666 191.732 197.829 191.114 197.051Z" fill="#F8F8FA"/>
<path d="M181.507 200.756C182.046 201.582 182.523 202.447 182.936 203.342L187.557 201.564C187.229 200.849 186.557 199.885 186.043 198.992L181.507 200.756Z" fill="#F8F8FA"/>
<path d="M176.143 202.857C176.679 203.652 177.157 204.485 177.572 205.349L182.257 203.564C181.936 202.849 181.293 201.921 180.779 201.035L176.143 202.857Z" fill="#F8F8FA"/>
<path d="M179.107 206.479L173.95 208.479L175.571 211.336L180.971 209.193C180.457 208.286 179.629 207.386 179.107 206.479Z" fill="#F8F8FA"/>
<path d="M179.971 206.142C180.781 206.908 181.447 207.813 181.936 208.814L185.564 207.385C184.793 206.521 184.279 205.649 183.464 204.785L179.971 206.142Z" fill="#F8F8FA"/>
<path d="M184.95 204.207C185.348 205.228 185.951 206.156 186.721 206.935L191.107 205.214C190.557 204.321 189.743 203.428 189.264 202.535L184.95 204.207Z" fill="#F8F8FA"/>
<path d="M190.45 202.072C191.105 202.931 191.707 203.83 192.25 204.764L196.407 203.129C195.636 202.279 195.121 201.422 194.336 200.564L190.45 202.072Z" fill="#F8F8FA"/>
<path d="M195.229 200.249C195.932 201.064 196.586 201.92 197.186 202.814L202.607 200.671C201.836 199.814 201.572 198.828 200.793 197.971L195.229 200.249Z" fill="#F8F8FA"/>
<path d="M201.864 197.643C202.543 198.564 202.979 199.378 203.586 200.314L206.771 199.064C206.057 198.236 205.721 197.264 204.921 196.457L201.864 197.643Z" fill="#F8F8FA"/>
<path d="M205.957 196.051C206.671 197.051 207.193 197.993 207.8 198.658L213.836 196.272C213.259 195.377 212.621 194.523 211.929 193.715L205.957 196.051Z" fill="#F8F8FA"/>
<path d="M218.586 191.15L215.214 192.458C215.686 193.493 216.6 194.093 217.25 194.95L220.75 193.572C219.957 192.858 219.4 191.993 218.586 191.15Z" fill="#F8F8FA"/>
<path d="M222.643 189.664L219.707 190.814C220.46 191.679 221.277 192.486 222.15 193.228L225.171 191.893C224.457 191.15 223.75 190.578 222.643 189.664Z" fill="#F8F8FA"/>
<path d="M215.35 187.914L212.286 189.057C212.865 189.924 213.507 190.748 214.207 191.521L217.514 190.336C216.721 189.628 216.164 188.757 215.35 187.914Z" fill="#F8F8FA"/>
<path d="M219.336 186.428L216.357 187.556C217.071 188.349 217.571 189.349 218.4 190.021L221.457 188.692C220.714 187.913 220.271 187.378 219.336 186.428Z" fill="#F8F8FA"/>
<path d="M227.086 187.857L223.921 189.143C224.7 189.922 225.636 190.622 226.414 191.4L230.186 189.886L227.086 187.857Z" fill="#F8F8FA"/>
<path d="M181.214 210.893L176.078 212.928L177.164 215.493L182.736 213.307C182.257 212.643 182 211.535 181.214 210.893Z" fill="#F8F8FA"/>
<path d="M188.279 208.1C188.743 208.893 189.436 209.693 189.95 210.493L194.05 208.886C193.659 208.005 193.18 207.165 192.622 206.379L188.279 208.1Z" fill="#F8F8FA"/>
<path d="M193.672 205.942C194.136 206.735 194.836 207.535 195.343 208.328L199.443 206.728C199.049 205.848 198.571 205.008 198.014 204.221L193.672 205.942Z" fill="#F8F8FA"/>
<path d="M208.007 200.264L198.971 203.835C199.571 204.835 200 205.457 200.4 206.292L201.036 206.107L209.607 202.742C209.071 201.971 208.6 201.042 208.007 200.264Z" fill="#F8F8FA"/>
<path d="M208.993 199.872C209.505 200.743 210.093 201.568 210.75 202.336L218.071 199.479C217.307 198.754 216.611 197.96 215.993 197.107L208.993 199.872Z" fill="#F8F8FA"/>
<path d="M227.257 192.857L223.914 194.179C224.629 194.893 225.571 195.922 226.143 196.565L229.55 195.136C228.834 194.329 228.068 193.568 227.257 192.857Z" fill="#F8F8FA"/>
<path d="M231.807 190.814L228.172 192.243C229.186 192.957 229.822 193.836 230.729 194.493L234.643 192.957L231.807 190.814Z" fill="#F8F8FA"/>
<path d="M182.364 210.444C182.764 211.328 183.315 212.135 183.993 212.829L188.814 210.936C188.343 210.091 187.803 209.286 187.2 208.529L182.364 210.444Z" fill="#F8F8FA"/>
<path d="M178.136 216.979L179.214 219.286L182.821 217.858C182.343 217.143 181.736 216.429 181.307 215.715L178.136 216.979Z" fill="#F8F8FA"/>
<path d="M209.264 204.807L182.379 215.314C182.803 216.061 183.281 216.777 183.807 217.457L210.771 206.999C210.321 206.234 209.818 205.501 209.264 204.807Z" fill="#F8F8FA"/>
<path d="M236.8 194.051L234.071 195.129C235 195.615 235.779 196.408 236.664 196.994L239.386 195.936L236.8 194.051Z" fill="#F8F8FA"/>
<path d="M219.129 200.949L215.479 202.378C215.936 203.092 216.193 204.042 216.657 204.742L220.836 203.121C220.473 202.256 219.883 201.506 219.129 200.949Z" fill="#F8F8FA"/>
<path d="M229.336 196.965L225.986 198.272C226.555 199.039 227.188 199.755 227.879 200.415L231.45 199.029C230.836 198.179 229.871 197.893 229.336 196.965Z" fill="#F8F8FA"/>
<path d="M233.021 195.521L230.079 196.671C230.793 197.386 231.436 198.036 232.093 198.757L235.421 197.464C234.621 196.8 233.821 196.293 233.021 195.521Z" fill="#F8F8FA"/>
<path d="M214.593 202.729C214.793 203.486 215.628 204.243 216.021 205L216.686 204.743C216.207 204.029 215.971 203.107 215.507 202.379L214.593 202.729Z" fill="#F8F8FA"/>
<path d="M210.093 204.486C210.613 205.204 211.069 205.966 211.457 206.764L215.993 205C215.628 204.243 214.793 203.486 214.564 202.729L210.093 204.486Z" fill="#F8F8FA"/>
<path d="M209.214 210.715C208.921 207.093 208.157 203.257 205.421 200.657C204.129 199.368 202.389 198.626 200.564 198.586C199.607 198.586 197.707 199.057 197.407 200.179C197.057 201.493 198.936 201.657 199.778 201.836C202.121 202.336 203.65 203.729 203.886 206.057C202.171 204.629 200.207 203.622 198.464 205.622C197.711 205.501 196.939 205.584 196.228 205.861C195.517 206.139 194.894 206.601 194.421 207.2C194.136 207.622 194.064 208.329 193.621 208.45C192.88 208.707 192.219 209.156 191.707 209.75C190.843 210.65 190.428 212.207 191.257 213.257C191.971 214.15 193.793 212.636 194.357 212.286C195.314 211.686 196.5 211.279 197.443 212.157C198.157 212.822 198.357 214.072 198.593 214.979C199.219 217.535 200.03 220.041 201.021 222.479C202.357 225.693 203.928 229.857 207.386 231.315C207.392 231.338 207.405 231.36 207.422 231.378C207.44 231.395 207.462 231.408 207.486 231.415L207.843 231.5C207.885 231.508 207.928 231.5 207.965 231.477C208.001 231.455 208.028 231.419 208.039 231.378C208.051 231.337 208.047 231.293 208.027 231.255C208.008 231.217 207.976 231.187 207.936 231.172H207.893C208.978 230.179 209.628 228.529 210.564 227.422C211.171 226.707 211.778 225.993 212.407 225.279C212.857 224.864 213.335 224.48 213.836 224.129C213.855 224.111 213.871 224.09 213.882 224.066C213.893 224.042 213.898 224.016 213.898 223.99C213.898 223.963 213.893 223.937 213.882 223.913C213.871 223.889 213.855 223.868 213.836 223.85C209.143 220.865 209.607 215.572 209.214 210.715Z" fill="#414355"/>
<path d="M234.686 213.994C233.841 212.444 233.088 210.846 232.429 209.208C231.621 207.521 231.017 205.745 230.629 203.915C230.207 201.408 230.85 198.915 230.443 196.387C230.314 195.615 229.729 193.337 228.464 194.137C228.121 194.352 227.839 194.652 227.648 195.009C227.456 195.366 227.361 195.767 227.371 196.172C227.385 196.986 227.342 197.8 227.243 198.608C227.1 199.28 226.921 200.087 226.779 200.701C226.2 199.172 225.657 197.315 224.343 195.98C222.914 194.508 220.464 192.915 218.314 193.23C218.005 193.295 217.723 193.455 217.507 193.686C217.291 193.917 217.151 194.209 217.107 194.522C216.971 195.301 217.943 195.851 218.479 196.172C219.612 196.741 220.662 197.462 221.6 198.315C222.111 198.912 222.495 199.607 222.729 200.358C221.734 199.305 220.555 198.443 219.25 197.815C217.429 196.965 214.393 196.465 212.779 197.958C212.604 198.12 212.482 198.33 212.428 198.562C212.375 198.794 212.392 199.036 212.478 199.258C212.964 200.201 214.078 200.237 215 200.472C216.951 200.963 218.674 202.111 219.879 203.722C220.554 204.758 221.144 205.848 221.643 206.98C220.643 206.494 219.743 205.551 218.721 205.065C217.467 204.456 216.087 204.153 214.693 204.18C213.136 204.237 211.836 206.215 213.464 207.244C214.45 207.858 215.607 207.994 216.514 208.772C217.979 210.03 218.907 211.844 219.964 213.43C220.758 214.68 221.83 215.73 223.096 216.498C224.362 217.266 225.789 217.732 227.264 217.858C227.294 217.869 227.327 217.869 227.357 217.858H227.636C227.665 217.862 227.694 217.857 227.72 217.843C227.746 217.828 227.766 217.806 227.779 217.78C228.861 217.415 229.88 216.884 230.8 216.208C232.014 215.494 233.371 215.051 234.579 214.272C234.629 214.249 234.669 214.207 234.689 214.155C234.709 214.103 234.708 214.045 234.686 213.994Z" fill="#414355"/>
<path d="M217.486 226.428C216.336 225.335 215.193 224.228 214.036 223.143C213.24 222.395 212.429 221.666 211.6 220.957C211.364 220.764 211.25 220.6 210.964 220.678C209.536 221.05 208.236 222.071 207.05 222.821C206.996 222.855 206.957 222.909 206.943 222.971C204.6 224.516 202.764 226.717 201.664 229.3C201.638 229.346 201.628 229.399 201.634 229.452C201.641 229.505 201.664 229.554 201.7 229.593C203.757 232.021 205.671 234.593 207.607 237.093C209.913 232.737 213.319 229.06 217.486 226.428Z" fill="#2A9CC8"/>
<path d="M242.836 217.792L240.207 215.935C239.197 215.191 238.142 214.509 237.05 213.892C236.574 213.589 236.042 213.382 235.486 213.285C235.464 213.245 235.43 213.213 235.389 213.194C235.348 213.175 235.302 213.169 235.257 213.178C233.514 213.485 231.814 214.649 230.357 215.585C228.657 216.685 226.657 218.042 225.707 219.871C225.674 219.926 225.659 219.992 225.667 220.057C225.675 220.121 225.704 220.181 225.75 220.228C227.843 222.242 230.307 223.742 232.621 225.449C234.821 221.785 238.829 219.635 242.836 217.792Z" fill="#2A9CC8"/>
<path d="M173.6 183.572C173.429 183.179 172.843 183.172 172.493 183.179C172.015 183.191 171.538 183.23 171.064 183.293C170.441 183.448 169.894 183.822 169.522 184.346C169.151 184.871 168.981 185.511 169.043 186.15C169.164 187.45 170.893 187.308 171.771 186.793C172.65 186.279 174.121 184.743 173.6 183.572Z" fill="white"/>
<path d="M179.221 184.108C178.856 184.345 178.432 184.478 177.997 184.492C177.561 184.506 177.13 184.4 176.75 184.186C176.678 183.952 176.62 183.714 176.578 183.472C176.922 183.636 177.314 183.665 177.677 183.554C178.041 183.443 178.349 183.199 178.543 182.872C178.564 182.835 178.569 182.791 178.558 182.751C178.546 182.71 178.519 182.675 178.482 182.654C178.445 182.633 178.401 182.628 178.361 182.64C178.32 182.651 178.285 182.678 178.264 182.715C178.058 182.963 177.777 183.139 177.464 183.218C177.151 183.296 176.82 183.272 176.521 183.151C176.436 182.658 176.371 182.144 176.278 181.615C176.175 180.89 175.871 180.209 175.4 179.648C174.929 179.087 174.31 178.67 173.614 178.444C171.221 177.644 170.943 181.351 171.057 183.086C169.121 182.922 167.486 187.208 170.343 187.451C172.121 187.601 174.007 185.579 173.914 183.879C173.85 182.572 172.378 182.679 171.336 183.065C171.314 182.125 171.504 181.192 171.893 180.336C172.15 179.808 172.45 179.201 173.107 179.151C173.943 179.086 174.8 179.972 175.186 180.579C175.9 181.744 175.9 183.229 176.264 184.479C176.248 184.48 176.232 184.485 176.218 184.493C176.203 184.502 176.192 184.514 176.183 184.528C176.175 184.542 176.17 184.558 176.169 184.574C176.168 184.591 176.171 184.607 176.178 184.622C176.586 185.536 175.9 186.394 175.236 186.965C175.086 187.094 175.286 187.365 175.45 187.244C175.781 187.028 176.056 186.737 176.252 186.394C176.448 186.051 176.56 185.667 176.578 185.272C176.758 185.627 177.009 185.941 177.317 186.193C177.624 186.445 177.981 186.63 178.364 186.736C178.409 186.748 178.456 186.742 178.497 186.722C178.538 186.702 178.57 186.667 178.588 186.625C178.606 186.583 178.609 186.536 178.595 186.492C178.582 186.448 178.553 186.411 178.514 186.386C177.78 185.992 177.21 185.349 176.907 184.572C177.305 184.782 177.756 184.871 178.204 184.828C178.652 184.785 179.078 184.611 179.428 184.329C179.536 184.236 179.371 183.994 179.221 184.108ZM173.55 184.072C173.628 185.651 171.771 187.122 170.321 187.172C168.143 187.236 169.107 184.079 170.557 183.529C170.553 183.549 170.555 183.569 170.562 183.588C170.568 183.607 170.58 183.624 170.595 183.637C170.61 183.65 170.629 183.659 170.648 183.662C170.668 183.666 170.688 183.664 170.707 183.658C170.814 183.622 171.543 183.465 171.55 183.379C172.443 183.101 173.486 182.929 173.55 184.072Z" fill="#2A9CC8"/>
<path d="M186.993 181.429C186.107 181.586 185.336 181.708 184.636 181.036C184.263 180.643 183.95 180.198 183.707 179.715C183.693 178.118 183.36 176.539 182.728 175.072C182.271 173.836 181.8 172.415 180.7 171.622C180.199 171.312 179.596 171.212 179.021 171.343C178.25 171.615 177.821 172.365 177.114 172.686C176.957 172.699 176.805 172.749 176.671 172.832C176.536 172.915 176.424 173.03 176.343 173.165C175.883 173.172 175.426 173.244 174.986 173.379H174.95C173.878 173.772 172.721 172.129 171.786 173.336C171.464 173.758 171.75 174.293 172.057 174.615C172.292 174.822 172.568 174.979 172.867 175.075C173.165 175.17 173.481 175.204 173.793 175.172C174 176.551 176.093 176.558 177.071 176.272C178.214 175.943 179.657 174.808 178.936 173.501C178.729 173.167 178.414 172.915 178.043 172.786C178.757 172.379 179.343 171.793 180.321 172.236C181.3 172.679 181.828 174.379 182.236 175.258C182.802 176.501 183.138 177.837 183.228 179.201C183.232 179.806 183.095 180.405 182.829 180.949C182.562 181.493 182.174 181.968 181.693 182.336C181.521 182.472 181.736 182.715 181.914 182.622C182.64 182.265 183.197 181.636 183.464 180.872C183.464 181.336 183.464 181.793 183.464 182.258C183.486 182.693 183.401 183.126 183.215 183.52C183.03 183.914 182.75 184.255 182.4 184.515C182.257 184.643 182.436 184.822 182.586 184.758C183.971 184.143 183.878 182.801 183.764 181.515C184.002 182.102 184.393 182.615 184.895 183.002C185.397 183.389 185.993 183.635 186.621 183.715C186.821 183.715 186.843 183.436 186.671 183.379C185.854 183.178 185.111 182.75 184.528 182.143C184.139 181.68 183.851 181.14 183.686 180.558V180.322C183.891 180.759 184.18 181.152 184.536 181.479C184.891 181.742 185.312 181.904 185.752 181.947C186.192 181.989 186.636 181.912 187.036 181.722C187.061 181.705 187.081 181.681 187.094 181.652C187.106 181.624 187.111 181.593 187.106 181.562C187.102 181.532 187.089 181.503 187.069 181.479C187.049 181.456 187.022 181.438 186.993 181.429ZM178.714 173.929C179.107 174.965 177.5 175.736 176.771 175.958C175.871 176.229 174.178 176.086 174.036 174.893C173.921 173.908 175.171 173.543 175.9 173.465H176.336C176.768 173.496 177.203 173.496 177.636 173.465C177.664 173.465 177.691 173.454 177.711 173.433C177.731 173.413 177.743 173.386 177.743 173.358C177.743 173.329 177.731 173.302 177.711 173.282C177.691 173.262 177.664 173.251 177.636 173.251C177.4 173.251 177.336 173.251 177.021 173.215H177.086C177.187 173.209 177.288 173.192 177.386 173.165C177.655 173.134 177.928 173.188 178.165 173.318C178.403 173.449 178.595 173.65 178.714 173.893V173.929Z" fill="#2A9CC8"/>
<path d="M194.271 179.764C193.187 179.565 192.159 179.134 191.257 178.5C191.359 178.549 191.467 178.583 191.578 178.6C192.386 178.736 193.228 178.6 194.05 178.672C194.243 178.672 194.278 178.379 194.093 178.329C193.387 178.195 192.668 178.137 191.95 178.157C190.943 178.114 189.936 176.536 189.55 175.729C188.778 174.122 188.564 172.314 188.05 170.629C187.971 170.386 187.886 170.122 187.786 169.857C188.387 169.488 188.868 168.952 189.171 168.314C189.433 167.593 189.402 166.799 189.086 166.1C189.007 165.829 188.836 165.536 188.7 165.564C188.564 165.593 188.478 165.829 188.378 166.136C188.235 166.43 188.052 166.704 187.836 166.95C187.662 167.204 187.53 167.484 187.443 167.779C187.345 168.169 187.333 168.576 187.407 168.972C186.778 167.657 185.828 166.422 184.507 166.214C184.807 166.036 185.064 165.792 185.257 165.5C185.736 164.786 185.214 163.8 184.936 163.086C184.929 163.059 184.917 163.035 184.9 163.014C184.882 162.993 184.86 162.977 184.835 162.966C184.809 162.956 184.782 162.952 184.755 162.954C184.728 162.956 184.702 162.964 184.678 162.979C183.843 163.472 182.936 165.122 183.457 166.136C183.235 166.099 183.011 166.08 182.786 166.079C181.4 166.079 180.843 167.029 179.65 167.572C179.514 167.636 178.936 167.922 179.007 168.029C179.078 168.136 179.571 168.322 179.721 168.336C180.671 168.429 181.55 168.614 182.457 168.172C182.653 168.102 182.834 167.994 182.988 167.854C183.142 167.714 183.268 167.545 183.357 167.357C183.443 167.186 183.521 166.9 183.621 166.643C185.764 167.036 186.7 168.857 187.3 170.793C186.544 170.632 185.778 170.525 185.007 170.472C184.443 170.447 183.888 170.619 183.436 170.957C183.321 171.05 183.1 171.307 183.243 171.364C184.078 171.693 184.714 172.793 185.786 172.536C186.464 172.327 187.052 171.897 187.457 171.314C187.636 171.957 187.786 172.6 187.943 173.193C188.321 174.679 189.015 176.065 189.978 177.257C189.982 178.171 189.735 179.067 189.264 179.85C189.241 179.88 189.232 179.919 189.237 179.956C189.242 179.994 189.262 180.027 189.293 180.05C189.323 180.073 189.361 180.083 189.399 180.077C189.436 180.072 189.47 180.052 189.493 180.022C189.78 179.73 190.003 179.382 190.148 179C190.293 178.617 190.357 178.209 190.336 177.8C190.336 177.8 190.536 178.193 190.607 178.272C190.678 178.35 190.786 178.636 190.878 178.829C190.963 180.105 190.717 181.382 190.164 182.536C190.144 182.57 190.137 182.611 190.145 182.65C190.152 182.689 190.174 182.724 190.205 182.749C190.237 182.773 190.276 182.785 190.316 182.783C190.355 182.781 190.393 182.764 190.421 182.736C191.05 181.832 191.355 180.742 191.286 179.643C191.871 180.764 192.621 181.743 194.086 181.55C194.278 181.55 194.371 181.214 194.136 181.172C193.696 181.142 193.268 181.014 192.884 180.798C192.499 180.581 192.168 180.282 191.914 179.922C191.7 179.607 191.514 179.264 191.321 178.929C192.168 179.597 193.19 180.004 194.264 180.1C194.428 180.129 194.464 179.807 194.271 179.764Z" fill="#2A9CC8"/>
<path d="M171.929 146.292C172.374 146.136 172.76 145.847 173.035 145.463C173.31 145.08 173.46 144.621 173.464 144.149C173.458 143.625 173.269 143.12 172.929 142.721C172.219 143.772 171.868 145.025 171.929 146.292Z" fill="#FFA348"/>
<path d="M171.121 141.857C170.82 141.857 170.522 141.917 170.244 142.032C169.966 142.147 169.713 142.316 169.5 142.529C169.287 142.742 169.118 142.995 169.003 143.273C168.888 143.551 168.829 143.849 168.829 144.15C168.829 144.451 168.888 144.75 169.003 145.028C169.118 145.306 169.287 145.559 169.5 145.772C169.713 145.984 169.966 146.153 170.244 146.269C170.522 146.384 170.82 146.443 171.121 146.443C171.402 146.441 171.68 146.39 171.943 146.293C171.882 145.026 172.233 143.773 172.943 142.722C172.721 142.453 172.443 142.236 172.128 142.087C171.814 141.938 171.47 141.859 171.121 141.857Z" fill="white"/>
<path d="M176.3 149.006C176.543 149.093 176.799 149.138 177.057 149.142C178.357 149.142 179.007 148.114 179.007 146.849C179.015 146.423 178.927 146.001 178.75 145.614C176.714 145.142 175.336 146.699 176.3 149.006Z" fill="#FFA348"/>
<path d="M178.75 145.615C178.607 145.289 178.369 145.014 178.067 144.826C177.765 144.637 177.413 144.544 177.057 144.558C176.751 144.553 176.448 144.609 176.163 144.722C175.879 144.834 175.62 145.002 175.4 145.215C175.181 145.428 175.005 145.682 174.884 145.962C174.762 146.243 174.698 146.545 174.693 146.851C174.701 147.332 174.861 147.798 175.15 148.182C175.438 148.567 175.841 148.851 176.3 148.994C175.5 146.887 176.664 145.179 178.75 145.615Z" fill="white"/>
<path d="M155.75 144.15C155.693 144.213 155.622 144.26 155.542 144.288C155.462 144.315 155.376 144.322 155.293 144.308C154.935 144.711 154.737 145.232 154.736 145.772C154.745 146.388 154.998 146.976 155.44 147.405C155.882 147.835 156.476 148.072 157.093 148.065C157.239 148.062 157.385 148.047 157.528 148.022C157.643 147.273 157.536 146.508 157.22 145.819C156.903 145.131 156.392 144.551 155.75 144.15Z" fill="#FFA348"/>
<path d="M159.457 145.772C159.452 145.466 159.388 145.164 159.266 144.883C159.145 144.602 158.969 144.348 158.75 144.135C158.53 143.923 158.271 143.755 157.987 143.642C157.702 143.53 157.399 143.474 157.093 143.479C156.751 143.478 156.413 143.552 156.102 143.695C155.791 143.838 155.515 144.047 155.293 144.307C155.676 144.398 156.038 144.565 156.356 144.798C156.673 145.031 156.941 145.326 157.143 145.665C157.502 146.395 157.636 147.215 157.529 148.022C158.063 147.933 158.549 147.659 158.902 147.247C159.254 146.836 159.451 146.313 159.457 145.772Z" fill="white"/>
<path d="M150.1 148.963C149.701 149.325 149.442 149.815 149.369 150.349C149.296 150.883 149.414 151.425 149.702 151.88C149.989 152.335 150.429 152.674 150.942 152.837C151.455 153 152.01 152.976 152.507 152.771C153.186 150.556 152.293 148.706 150.1 148.963Z" fill="#FFA348"/>
<path d="M153.457 149.951C153.093 148.644 152.114 148.022 150.893 148.479C150.601 148.59 150.332 148.755 150.1 148.965C152.293 148.708 153.05 150.965 152.507 152.772C153.657 151.972 153.793 151.165 153.457 149.951Z" fill="white"/>
<path d="M152.443 155.75C153.929 156.557 154.164 157.507 153.157 158.336C152.15 159.165 150.136 158.493 149.143 157.707C147.6 156.479 148.607 155.007 150.021 154.85C151.314 154.75 151.564 155.272 152.443 155.75Z" fill="#FFA348"/>
<path d="M183.393 150.151C184.879 150.965 185.214 151.772 184.443 152.401C183.429 153.222 181.15 152.629 180.157 151.836C178.614 150.615 179.55 149.208 180.964 149.072C182.264 148.951 182.514 149.672 183.393 150.151Z" fill="#FFA348"/>
<path d="M164.107 145.908C165.409 145.908 166.464 144.881 166.464 143.615C166.464 142.349 165.409 141.322 164.107 141.322C162.805 141.322 161.75 142.349 161.75 143.615C161.75 144.881 162.805 145.908 164.107 145.908Z" fill="white"/>
<path d="M143.743 133.365L153.357 131.772L167.95 115.65L152.3 118.508C150.671 125.715 143.743 133.365 143.743 133.365Z" fill="#FCC18B"/>
<path d="M195.321 106.185C192.15 106.542 187.564 107.185 182.721 107.871L182.279 104.471L168.657 106.428L169.021 109.835L169.55 113.828L176.214 106.528L183.257 111.806L182.757 107.871L195.321 106.185Z" fill="#FCC18B"/>
<path d="M201.407 111.264L185.307 113.364L197.957 122.857C199.443 120.528 201.729 116.107 201.407 111.264Z" fill="#FCC18B"/>
<path d="M183.221 111.822C183.65 112.136 184.879 113.064 185.279 113.372L183.193 111.814L183.221 111.822Z" fill="#858FA9"/>
<path d="M200.657 107.671C200.457 107.066 200.219 106.474 199.943 105.9C199.864 105.721 198.2 105.9 195.286 106.185L182.721 107.857L183.221 111.792L185.307 113.35L201.407 111.25C201.325 110.028 201.073 108.823 200.657 107.671Z" fill="#FFA348"/>
<path d="M167.964 115.644C168.4 115.122 169.257 114.215 169.579 113.844L167.922 115.672L167.964 115.644Z" fill="#858FA9"/>
<path d="M169.021 109.836V109.9C160.05 111.329 152.636 112.6 152.636 112.864C152.718 114.294 152.675 115.728 152.507 117.15C152.45 117.593 152.364 118.043 152.264 118.493L167.914 115.636L169.571 113.8L169.043 109.814L169.021 109.836Z" fill="#FFA348"/>
<path d="M174.9 101.428C170.929 101.985 168.636 103.835 168.829 106.485C168.829 106.764 168.779 108.321 168.864 108.578C171.064 108.249 172.986 107.949 175.214 107.635C175.479 107.285 175.772 106.971 176.143 106.542C176.572 106.842 176.857 107.106 177.2 107.342C179.05 107.078 180.722 106.835 182.614 106.585C182.079 102.449 179.072 100.814 174.9 101.428Z" fill="#FFA348"/>
<path d="M177.729 100.168L171.54 101.039L171.748 102.517L177.937 101.646L177.729 100.168Z" fill="#FFA348"/>
<path d="M168.864 108.55L168.05 102.243L169.114 102.086L169.857 108.365L168.864 108.55Z" fill="#FFA348"/>
<path d="M182.614 106.557L181.757 100.557L180.743 100.742L181.707 106.692L182.614 106.557Z" fill="#FFA348"/>
<path d="M158.436 130.715C158.2 130.972 158.579 131.358 158.814 131.101C165.614 123.665 172.25 116.401 179.057 108.958C179.057 108.958 179.157 108.822 179.171 108.801C179.045 108.684 178.909 108.579 178.764 108.486C171.964 115.951 165.229 123.322 158.436 130.715Z" fill="#DCDDE0"/>
<path d="M181.929 110.801L162.193 132.365C161.957 132.622 162.343 133.001 162.579 132.744L182.364 111.129C182.226 111.011 182.081 110.901 181.929 110.801Z" fill="#DCDDE0"/>
<path d="M185.329 113.514C180.05 119.278 174.893 124.842 169.614 130.607C169.764 130.717 169.931 130.804 170.107 130.864C175.364 125.149 180.45 119.528 185.707 113.785C185.592 113.68 185.465 113.589 185.329 113.514Z" fill="#DCDDE0"/>
<path d="M188.771 116.008L176.928 128.972C177.106 129.029 177.273 129.116 177.421 129.229C181.328 124.944 185.278 120.658 189.214 116.372C189.043 116.282 188.893 116.158 188.771 116.008Z" fill="#DCDDE0"/>
<path d="M192.179 118.621L183.607 127.95C183.732 128.079 183.874 128.192 184.029 128.285C186.886 125.135 189.664 122.107 192.55 118.957C192.5 118.793 192.343 118.728 192.179 118.621Z" fill="#DCDDE0"/>
<path d="M195.686 121.129C193.781 123.186 191.891 125.248 190.014 127.315C190.179 127.407 190.336 127.5 190.486 127.6C192.357 125.557 194.226 123.517 196.093 121.479C195.943 121.38 195.806 121.262 195.686 121.129Z" fill="#DCDDE0"/>
<path d="M198.15 126.914C198.428 127.121 198.15 127.571 197.85 127.364C189.736 121.392 181.821 115.549 173.707 109.571L173.564 109.442C173.665 109.305 173.777 109.175 173.9 109.057L198.15 126.914Z" fill="#DCDDE0"/>
<path d="M171.214 111.9L194.786 129.236C195.064 129.443 194.786 129.893 194.486 129.686L170.914 112.3C170.979 112.143 171.1 112.015 171.214 111.9Z" fill="#DCDDE0"/>
<path d="M168.429 115.221C174.721 119.849 180.864 124.314 187.15 128.942C187.03 129.084 186.884 129.202 186.721 129.292L168.107 115.556C168.201 115.433 168.309 115.32 168.429 115.221Z" fill="#DCDDE0"/>
<path d="M165.5 118.328L179.657 128.757C179.491 128.841 179.343 128.958 179.221 129.1L165.164 118.771C165.306 118.649 165.421 118.498 165.5 118.328Z" fill="#DCDDE0"/>
<path d="M162.693 121.551L172.879 129.051C172.779 129.203 172.662 129.342 172.529 129.465C169.093 126.936 165.8 124.465 162.357 121.965C162.407 121.786 162.557 121.694 162.693 121.551Z" fill="#DCDDE0"/>
<path d="M159.743 124.693L166.5 129.693C166.357 129.815 166.221 129.936 166.093 130.065L159.407 125.143C159.54 125.01 159.653 124.859 159.743 124.693Z" fill="#DCDDE0"/>
<path d="M157.043 127.928L163.8 132.928L163.393 133.299L156.714 128.378C156.845 128.244 156.955 128.093 157.043 127.928Z" fill="#DCDDE0"/>
<path d="M165.286 128.744C165.25 128.239 165.097 127.75 164.839 127.315C164.581 126.879 164.225 126.51 163.8 126.236C163.461 126.002 163.072 125.848 162.664 125.786C162.382 125.751 162.096 125.751 161.814 125.786C161.621 125.786 161.179 125.994 160.886 126.036C160.779 125.901 160.436 126.036 160.429 126.036C160.404 126.05 160.385 126.069 160.371 126.094C160.136 126.479 158.264 127.972 156.964 127.615C156.457 127.472 155.579 126.265 154.986 126.994C154.636 127.422 155.536 128.644 156.721 129.136C158.314 129.779 159.186 128.201 159.971 130.101C160.021 130.215 159.971 130.672 160.129 130.651C162.271 130.351 163.4 130.186 164.914 129.879C166.736 129.486 165.321 129.379 165.286 128.744Z" fill="#414355"/>
<path d="M162.914 122.186C162.829 121.893 162.684 121.621 162.488 121.388C162.292 121.155 162.049 120.965 161.776 120.83C161.502 120.696 161.204 120.62 160.899 120.607C160.595 120.595 160.291 120.646 160.007 120.757C159.972 120.751 159.935 120.751 159.9 120.757C156.8 121.857 159.729 127.936 162.386 125.993C163.5 125.207 163.357 123.3 162.914 122.186Z" fill="#FFA348"/>
<path d="M159.457 124.564C159.457 124.006 159.5 122.506 160.064 122.171C161.8 121.128 162.736 122.299 163.028 123.014C163.321 123.728 163.621 122.021 162.828 120.871C161.793 119.399 159.514 120.278 158.443 121.749C157.543 122.985 156.957 123.842 157.364 125.592C157.464 126.199 158.443 126.164 158.793 125.999C158.999 125.821 159.166 125.601 159.28 125.353C159.395 125.106 159.455 124.836 159.457 124.564Z" fill="#858FA9"/>
<path d="M173.357 124.014C173.071 124.014 172.807 124.599 172.643 124.785C171.807 125.678 170.929 125.549 169.843 124.907C169.796 124.869 169.738 124.849 169.679 124.849C169.619 124.849 169.561 124.869 169.514 124.907C168.886 125.571 168.214 125.457 167.493 125.314C167.421 125.235 167.064 125.099 166.943 125.171C166.51 125.383 166.127 125.683 165.817 126.052C165.507 126.421 165.277 126.851 165.143 127.314C165.062 127.86 165.108 128.417 165.279 128.942C165.479 129.864 165.643 129.657 165.814 129.657C166.936 129.535 167.243 129.485 168.393 129.314C169.371 129.178 170.414 128.971 171.393 128.828C171.543 128.828 171.493 128.485 171.464 128.357C171.436 128.228 171.107 127.228 171.25 127.199C171.887 127.039 172.502 126.799 173.079 126.485C173.379 126.276 173.622 125.995 173.786 125.668C173.951 125.342 174.032 124.979 174.021 124.614C173.993 124.285 173.864 124.014 173.357 124.014Z" fill="#FFA348"/>
<path d="M169.657 121.428C169.314 121.053 168.839 120.825 168.331 120.793C167.823 120.761 167.323 120.927 166.936 121.256C166.007 121.606 165.771 123.185 166.014 124.035C166.125 124.37 166.311 124.676 166.559 124.928C166.807 125.18 167.109 125.371 167.443 125.487C167.777 125.603 168.132 125.641 168.483 125.597C168.834 125.553 169.169 125.429 169.464 125.235C169.754 125.016 169.993 124.736 170.163 124.415C170.334 124.094 170.431 123.739 170.45 123.376C170.468 123.013 170.407 122.651 170.27 122.314C170.133 121.977 169.924 121.675 169.657 121.428Z" fill="#858FA9"/>
<path d="M174.157 123.428C174.043 123.363 173.871 123.285 173.821 123.135C173.707 122.763 173.914 122.171 173.707 122.192C173.3 122.235 173.371 123.071 173.143 123.385C172.736 123.313 172.657 122.342 172.314 122.528C171.971 122.713 172.25 122.928 172.264 123.021C172.414 123.446 172.529 123.883 172.607 124.328C172.764 124.799 173.107 124.871 173.65 124.685C174.007 124.571 174.714 123.763 174.157 123.428Z" fill="#858FA9"/>
<path d="M169.236 120.3C169.129 119.971 167.943 120.229 167.65 120.3C167.116 120.446 166.599 120.647 166.107 120.9C165.207 121.407 165.186 121.929 165.629 122.586C165.729 122.736 165.879 123.014 165.943 122.957C166.3 122.671 166.457 122.243 166.993 122.05C167.776 121.821 168.537 121.52 169.264 121.15C169.422 121.057 169.364 120.714 169.236 120.3Z" fill="#414355"/>
<path d="M155.564 125.536C155.479 125.428 155.368 125.344 155.241 125.291C155.114 125.239 154.976 125.22 154.839 125.236C154.703 125.253 154.573 125.304 154.463 125.385C154.352 125.467 154.264 125.575 154.207 125.7C154.111 125.943 154.09 126.209 154.148 126.464C154.205 126.719 154.338 126.95 154.529 127.129C154.605 127.227 154.706 127.303 154.822 127.35C154.937 127.397 155.063 127.413 155.186 127.396C155.31 127.38 155.427 127.331 155.526 127.255C155.625 127.179 155.702 127.079 155.75 126.964C155.864 126.735 155.908 126.476 155.875 126.222C155.841 125.967 155.733 125.728 155.564 125.536Z" fill="#FFA348"/>
<path d="M139.233 78.8398L138.572 78.9941L139.186 81.6233L139.847 81.469L139.233 78.8398Z" fill="#414355"/>
<path d="M147.886 75.121L139.414 64.8496L137.757 66.221L137.75 66.1853L135.229 66.6925L137.857 79.7425L140.379 79.2282L137.929 67.0925L145.9 76.7567L147.886 75.121Z" fill="#858FA9"/>
<path d="M137.943 61.2574L136.179 61.8146L135.3 59.3574L134.286 59.7217L135.15 62.136L133.357 62.7003L135.429 68.5431L140.643 66.386L137.943 61.2574Z" fill="#414355"/>
<path d="M148.536 78.0711L145.9 76.7568L147.886 75.1211L148.536 78.0711Z" fill="#414355"/>
<path d="M159.071 64.2866C154.264 64.6008 151.593 66.6937 150.693 71.2223C150.643 71.5008 150.236 74.0008 150.236 74.3937V74.5866L153.464 74.8723L153.836 73.1151C157.271 73.5223 160.671 73.9508 164.064 74.3223L163.85 75.8437L167.264 76.258L167.393 76.0794C167.867 74.2935 168.145 72.4613 168.221 70.6151C167.986 66.8008 163.886 63.9651 159.071 64.2866Z" fill="#FFA348"/>
<path d="M164.714 71.8007C164.621 72.0864 165 70.5293 164.479 69.6079C163.957 68.6864 162.693 67.465 160.264 67.1793C157.164 66.8364 155.614 67.8936 155.007 68.865C154.507 69.7007 154.293 70.7864 154.229 70.6507C158.279 71.1293 160.636 71.4293 164.714 71.8007Z" fill="#FCC18B"/>
<path d="M152.979 72.3426L144.821 67.5497L153.114 61.1426L152.979 72.3426Z" fill="white"/>
<path d="M108.943 34.9994C107.871 33.4708 106.021 31.4922 104.229 30.8351C103.368 30.527 102.443 30.4427 101.541 30.5901C100.639 30.7376 99.7891 31.1119 99.0714 31.6779C98.7214 31.9708 97.6428 33.3708 97.2571 33.1636C96.2713 32.5259 95.1693 32.0889 94.0142 31.8779C91.8142 31.5708 89.8928 33.0922 88.4857 34.7779C85.4499 38.4422 85.9928 43.5279 86.7071 47.9637C87.1928 50.9208 87.9571 53.7779 87.5214 56.7922C87.1428 59.4208 85.8428 61.8637 84.4214 64.0779C84.3932 64.1296 84.3787 64.1876 84.3794 64.2464C84.3801 64.3052 84.3959 64.3628 84.4253 64.4138C84.4548 64.4647 84.4968 64.5072 84.5474 64.5372C84.598 64.5672 84.6554 64.5837 84.7142 64.5851C87.1142 64.5351 90.5999 65.0565 92.3857 62.9994C93.2499 61.9994 93.2071 61.1351 93.2714 59.8422C93.4361 57.9561 93.6983 56.0798 94.0571 54.2208C94.5071 51.1994 93.7214 47.9494 93.3428 44.9351C93.0365 42.8331 93.0776 40.6952 93.4642 38.6065C93.6894 37.6384 94.1848 36.7541 94.8928 36.0565C95.7928 35.1208 97.0357 35.1708 98.1999 35.1422C99.5148 35.3771 100.844 35.5227 102.179 35.5779C104.507 35.6422 106.393 36.2065 108.714 35.7136C108.864 35.7136 109.071 35.1208 108.943 34.9994Z" fill="#858FA9"/>
<path d="M104.364 57.9429C103.825 57.3934 103.15 56.9966 102.407 56.7929C100.493 56.0001 98.2571 55.2929 96.2857 56.2787C96.2564 56.2925 96.2306 56.3126 96.2099 56.3375C96.1892 56.3624 96.1743 56.3916 96.1661 56.4229C96.1579 56.4543 96.1567 56.487 96.1626 56.5188C96.1684 56.5507 96.1812 56.5809 96.2 56.6072C92.3071 59.3001 91.2 64.2929 89.2928 68.3929C89.1197 68.6918 89.0123 69.0241 88.9778 69.3678C88.9433 69.7114 88.9826 70.0585 89.0928 70.3858C92.1643 69.6072 94.7571 69.1501 97.5857 68.4072C99.4387 64.672 101.713 61.1611 104.364 57.9429Z" fill="#414355"/>
<path d="M109.4 48.158C108.136 46.0651 111.5 45.3865 112.729 44.7151C112.845 44.6388 112.942 44.5364 113.011 44.4162C113.081 44.2959 113.121 44.161 113.13 44.0223C113.138 43.8836 113.114 43.7448 113.059 43.6171C113.004 43.4894 112.921 43.3762 112.814 43.2865C110.75 42.208 109.657 40.7722 108.072 39.1222C107.103 38.1345 106.215 37.0716 105.414 35.9437C104.94 35.1395 104.272 34.4668 103.472 33.9865H103.357C101.443 33.0365 98.9144 33.5794 97.0144 34.3437C94.4144 35.3794 92.7286 37.6008 91.6215 40.058C90.1358 43.3722 90.5644 46.358 91.4501 49.7722C92.2429 52.8294 93.3072 55.8937 95.7358 58.0508C97.498 59.5997 99.6317 60.6654 101.929 61.1437C105.064 57.0365 105.772 55.4794 111.7 53.4294C111.695 52.8041 111.62 52.1813 111.479 51.5722C111.107 50.2794 110.079 49.2865 109.4 48.158Z" fill="#FCC18B"/>
<path d="M95.5358 44.4927C96.5783 44.8332 97.6813 44.9476 98.7715 44.8284C99.8501 44.6927 101.329 43.9499 101.629 42.807C101.929 41.6642 100.5 40.7142 99.6429 40.4427C99.082 40.2655 98.4815 40.2563 97.9155 40.4163C97.3494 40.5762 96.8425 40.8982 96.4572 41.3427C96.0946 41.7758 95.8255 42.2792 95.6669 42.8213C95.5084 43.3634 95.4637 43.9325 95.5358 44.4927Z" fill="white"/>
<path d="M105.586 39.3223C105.246 39.5282 104.964 39.8172 104.767 40.1621C104.569 40.5069 104.463 40.8963 104.457 41.2937C105.279 41.7294 106.1 41.8366 106.407 40.7437C106.507 40.0866 105.993 38.7723 105.379 39.758" fill="white"/>
<path d="M96.4 41.0785C96.3761 41.1095 96.3617 41.1468 96.3587 41.1858C96.3558 41.2249 96.3643 41.2639 96.3833 41.2982C96.4023 41.3324 96.431 41.3603 96.4657 41.3784C96.5004 41.3965 96.5397 41.404 96.5786 41.4C96.3809 42.1204 96.4732 42.8896 96.8358 43.5428C97.3429 44.4571 98.6786 44.3428 99.4072 43.8C100.136 43.2571 100.607 41.7571 99.85 40.9428C99.6208 40.7134 99.3466 40.5339 99.0446 40.4157C98.7426 40.2974 98.4194 40.243 98.0953 40.2557C97.7713 40.2685 97.4534 40.3482 97.1616 40.4898C96.8698 40.6314 96.6105 40.8318 96.4 41.0785Z" fill="#858FA9"/>
<path d="M105.85 38.8355C105.321 38.9427 105.343 39.8641 105.4 40.2641C105.493 40.907 106.264 42.1212 107.036 41.7284C108.114 41.1855 106.793 38.2998 105.85 38.8355Z" fill="#858FA9"/>
<path d="M111.214 44.1222C110.386 43.5151 109.143 43.7151 108.264 44.1222C107.8 44.3151 107.388 44.6164 107.064 45.0008C106.876 45.2502 106.702 45.5101 106.543 45.7794C106.543 45.7365 106.493 45.6722 106.357 45.5579C106.124 45.3438 105.85 45.178 105.552 45.0701C105.254 44.9622 104.938 44.9144 104.621 44.9294C104.553 44.1896 104.365 43.4658 104.064 42.7865C103.743 41.9151 103.586 40.9794 103.193 40.1365C102.87 39.3888 102.375 38.7281 101.748 38.208C101.121 37.6879 100.38 37.3232 99.5857 37.1437C95.9214 36.3151 93.3 39.5865 93.4857 43.0079C93.489 43.0604 93.5101 43.1101 93.5457 43.1487C93.5813 43.1873 93.6291 43.2125 93.681 43.2201C93.733 43.2276 93.786 43.217 93.8311 43.1901C93.8761 43.1632 93.9106 43.1216 93.9286 43.0722C94.4143 41.6437 94.4357 40.2865 95.6072 39.1222C96.1629 38.653 96.8192 38.318 97.5253 38.1434C98.2314 37.9687 98.9682 37.959 99.6786 38.1151C100.42 38.2997 101.103 38.6661 101.667 39.1811C102.23 39.6962 102.657 40.3437 102.907 41.0651C103.44 42.336 103.853 43.6535 104.143 45.0008C103.868 45.0721 103.61 45.1973 103.384 45.3692C103.157 45.5412 102.968 45.7564 102.825 46.0023C102.683 46.2482 102.591 46.52 102.555 46.8018C102.519 47.0836 102.539 47.3697 102.614 47.6437C102.631 47.7019 102.666 47.7531 102.714 47.7895C102.763 47.826 102.822 47.8457 102.882 47.8457C102.943 47.8457 103.002 47.826 103.05 47.7895C103.098 47.7531 103.133 47.7019 103.15 47.6437C103.225 47.1816 103.393 46.7394 103.643 46.3437C104.307 45.2579 105.621 45.6294 106.179 46.5794C106.209 46.632 106.253 46.6755 106.305 46.7056C106.358 46.7358 106.418 46.7513 106.479 46.7508C107.021 46.7508 107.143 46.0365 107.357 45.5865C108.071 44.2222 109.8 43.9079 111.107 44.4079C111.3 44.5008 111.379 44.2294 111.214 44.1222Z" fill="#2A9CC8"/>
<path d="M102.057 42.8994L102.221 42.7566C102.25 42.7299 102.271 42.6956 102.281 42.6577C102.291 42.6198 102.29 42.5797 102.279 42.5423C101.836 40.778 99.7928 39.6851 98.1 39.9494C96 40.2494 94.9857 42.7066 95.2428 44.578C95.2428 44.7208 95.5142 44.7208 95.5357 44.578C95.8142 42.8423 95.9 41.2137 97.8357 40.4851C99.2642 39.9423 101.636 41.2923 101.85 42.8566C101.85 42.9423 101.979 42.9494 102.029 42.8994H102.057Z" fill="#2A9CC8"/>
<path d="M105.864 37.8576C105.698 38.4754 105.382 39.0423 104.943 39.5076C104.57 40.0646 104.249 40.6553 103.986 41.2719C103.965 41.309 103.952 41.3505 103.95 41.3931C103.947 41.4357 103.955 41.4783 103.971 41.5177C103.988 41.557 104.013 41.592 104.045 41.62C104.078 41.648 104.116 41.6682 104.157 41.679C104.786 41.829 105.4 42.0219 106.014 42.229C106.706 42.3408 107.37 42.5832 107.971 42.9433C108.031 42.9909 108.106 43.0148 108.182 43.0104C108.258 43.0059 108.329 42.9734 108.383 42.9191C108.436 42.8649 108.467 42.7927 108.471 42.7167C108.474 42.6407 108.449 42.5662 108.4 42.5076C107.978 42.0707 107.441 41.7634 106.85 41.6219C106.027 41.2495 105.131 41.0688 104.229 41.0933L104.5 41.4505C104.73 40.7524 105.067 40.0945 105.5 39.5005C105.908 39.0436 106.159 38.4676 106.214 37.8576C106.214 37.6647 105.914 37.6147 105.879 37.8076L105.864 37.8576Z" fill="#2A9CC8"/>
<path d="M106.507 53.0706C107.215 53.0121 107.901 52.7996 108.518 52.4479C109.135 52.0963 109.668 51.614 110.079 51.0349C110.843 49.892 109.85 49.6063 108.821 49.6706C107.612 49.8366 106.431 50.1708 105.314 50.6635C104.029 51.0992 102.671 51.0778 101.414 51.592C101.384 51.579 101.35 51.5764 101.318 51.5846C101.286 51.5928 101.257 51.6115 101.237 51.6376C101.217 51.6636 101.205 51.6958 101.205 51.7289C101.205 51.762 101.216 51.7942 101.236 51.8206C101.231 51.8558 101.235 51.8915 101.246 51.9251C101.257 51.9587 101.276 51.9893 101.301 52.0147C101.325 52.0401 101.355 52.0596 101.389 52.0718C101.422 52.0839 101.458 52.0884 101.493 52.0849C102.643 53.092 105.136 53.1635 106.507 53.0706Z" fill="#DCDDE0"/>
<path d="M110.336 49.5856C109.757 48.7999 107.664 47.9713 107.364 49.5071C106.464 48.9213 105.629 49.0071 105.329 50.0571C103.9 49.2356 101.471 49.5213 100.957 51.2856C100.945 51.3327 100.944 51.3818 100.954 51.4293C100.964 51.4768 100.984 51.5215 101.014 51.56C101.043 51.5985 101.081 51.6298 101.125 51.6515C101.168 51.6733 101.216 51.6849 101.264 51.6856C103.066 51.7666 104.871 51.6829 106.657 51.4356C107.899 51.2864 109.093 50.8618 110.15 50.1928C110.173 50.2083 110.198 50.219 110.225 50.2241C110.252 50.2293 110.28 50.2289 110.307 50.2228C110.334 50.2168 110.359 50.2053 110.381 50.1891C110.403 50.1729 110.422 50.1522 110.436 50.1285C110.473 50.038 110.484 49.9386 110.466 49.8423C110.448 49.7459 110.403 49.6568 110.336 49.5856Z" fill="#FFA348"/>
<path d="M97.2143 61.4278C95.9072 61.6778 95.0714 62.6492 94.0643 63.3635C95.4005 60.8893 96.5305 58.3091 97.4429 55.6492C97.5714 55.2778 99.15 51.4921 98.2286 51.2492C96.95 50.9064 95.3714 53.6992 95.0286 54.5992C94.9286 54.8421 94.8429 55.0921 94.7572 55.3135C95.0572 53.8421 95.55 51.385 94.5929 50.1064C94.5734 50.0765 94.5475 50.0512 94.5172 50.0324C94.4868 50.0136 94.4527 50.0018 94.4172 49.9977C94.3818 49.9936 94.3458 49.9974 94.312 50.0088C94.2781 50.0201 94.2472 50.0388 94.2214 50.0635C93.6765 50.7224 93.2773 51.4893 93.05 52.3135C92.4474 53.6476 91.9692 55.0344 91.6214 56.4564C91.3143 57.885 91.2143 59.3921 91.05 60.8492C91.05 60.8492 91.05 60.9135 91.05 60.9421C91.05 60.485 91.05 60.0278 90.9714 59.5707C90.8929 58.6421 91.1357 56.785 90.2 56.1921C90.1551 56.1677 90.1047 56.1549 90.0536 56.1549C90.0024 56.1549 89.9521 56.1677 89.9072 56.1921C89.1357 56.685 89.1929 57.985 89 58.7778C88.6429 60.5421 88.2857 62.2921 88.0143 64.0707C87.6429 66.5635 87.3 68.5707 86.9429 71.0635C88.8 70.5278 90.2143 70.185 91.7286 69.8207C91.915 69.4922 92.1276 69.1793 92.3643 68.885C93.0677 67.8682 93.841 66.9016 94.6786 65.9921C95.3929 65.1921 96.1786 64.4278 96.9572 63.6778C97.4143 63.235 97.9786 62.9635 98.2429 62.385C98.5429 61.5921 97.8643 61.2707 97.2143 61.4278Z" fill="#FFA348"/>
<path d="M90.5999 67.2859L90.0785 67.1431C90.5902 65.1698 90.776 63.1262 90.6285 61.0931C90.6285 60.9074 90.6285 60.6502 90.6285 60.3788C90.6761 59.6613 90.6281 58.9407 90.4856 58.2359L91.0071 58.0859C91.1654 58.8513 91.2182 59.6348 91.1642 60.4145C91.1642 60.6931 91.1642 60.9359 91.1642 61.1288C91.3136 63.1982 91.1229 65.2781 90.5999 67.2859Z" fill="#414355"/>
<path d="M93.1429 62.0862L92.6643 61.829C93.4716 60.3624 94.0543 58.7829 94.3929 57.1433C94.7787 55.0442 94.7787 52.8924 94.3929 50.7933L94.9215 50.6719C95.3215 52.8513 95.3215 55.0853 94.9215 57.2647C94.5668 58.95 93.9676 60.5743 93.1429 62.0862Z" fill="#414355"/>
<path d="M92.3929 66.136L91.9286 65.8646L91.9643 65.8003C92.4773 64.8304 93.1188 63.9342 93.8714 63.136L94.1072 62.8931C94.5467 62.4385 95.0117 62.0092 95.5 61.6074L95.8357 62.036C95.3605 62.4194 94.9118 62.8346 94.4929 63.2788L94.25 63.5146C93.5315 64.2845 92.9189 65.1469 92.4286 66.0789L92.3929 66.136Z" fill="#414355"/>
<path d="M31.9286 86.7493C31.3072 85.2421 30.45 83.6778 30.7572 82.1136C30.8253 81.5036 31.0619 80.9247 31.4403 80.4416C31.8188 79.9584 32.3242 79.5901 32.9 79.3778C34.6857 78.8707 36.4214 79.6064 37.8572 80.6493C39.1429 81.585 40.7143 82.985 41.1 84.5778C41.1146 84.6389 41.1146 84.7025 41.1 84.7636L45.5 83.5707L33.2929 70.9707L14.9572 74.4278C14.9572 74.4278 19 78.8778 21.8286 82.1136C23.953 84.382 26.3525 86.376 28.9714 88.0493L31.9286 87.2493C31.8924 87.2184 31.8634 87.1801 31.8435 87.1369C31.8235 87.0938 31.8132 87.0468 31.8132 86.9993C31.8132 86.9517 31.8235 86.9048 31.8435 86.8616C31.8634 86.8184 31.8924 86.7801 31.9286 86.7493Z" fill="#FCC18B"/>
<path d="M41.0714 84.5791C40.6928 82.9862 39.1143 81.5862 37.8286 80.6505C36.4 79.6077 34.6571 78.8719 32.8714 79.3791C32.2956 79.5913 31.7902 79.9597 31.4117 80.4428C31.0333 80.926 30.7967 81.5049 30.7286 82.1148C30.4573 83.4743 30.659 84.8856 31.3 86.1148C31.4475 86.5208 31.6572 86.9016 31.9214 87.2434L41.05 84.7648C41.0717 84.7055 41.079 84.6418 41.0714 84.5791Z" fill="white"/>
<path d="M31.9286 75.2222C30.6714 74.5079 29.1786 75.0936 28.2214 76.0936C27.878 76.23 27.5725 76.4471 27.3307 76.7265C27.089 77.006 26.9182 77.3396 26.8327 77.6991C26.7472 78.0586 26.7496 78.4334 26.8396 78.7917C26.9297 79.1501 27.1047 79.4815 27.35 79.7579C28.7786 81.7436 31.3071 81.0222 32.95 79.7579C34.7857 78.3579 33.5429 76.0936 31.9286 75.2222Z" fill="#FFA348"/>
<path d="M60.3357 92.9714L48.1928 86.25L32.1857 91.1071C32.1857 91.1071 37.5785 95.3357 40.8214 97.6286C44.0642 99.9214 49.9857 102.343 49.9857 102.343L52.2571 101.314C52.2249 101.269 52.2007 101.218 52.1857 101.164C50.2143 98.7429 47.0642 96.9143 46.5642 93.6071C46.0642 90.3 50.6857 91.3643 52.2785 92.2286C53.0328 92.62 53.75 93.079 54.4214 93.6C55.1926 94.3755 56.0211 95.0918 56.9 95.7428C57.5643 96.1357 58.9571 96.7571 59.0428 97.6857C59.062 97.9018 59.0146 98.1187 58.9071 98.3071L59.7571 97.9214C60.1179 96.2954 60.3118 94.6368 60.3357 92.9714Z" fill="#FFA348"/>
<path d="M56.9643 95.7145C56.0854 95.0635 55.2569 94.3472 54.4857 93.5717C53.8152 93.0495 53.0979 92.5904 52.3428 92.2002C50.75 91.336 46.1286 90.286 46.6286 93.5788C47.1286 96.8717 50.2786 98.7145 52.25 101.136C52.2619 101.191 52.2864 101.242 52.3214 101.286L58.9786 98.2502C59.0861 98.0618 59.1334 97.8449 59.1143 97.6288C59.0143 96.7288 57.6428 96.1074 56.9643 95.7145Z" fill="#FCC18B"/>
<path d="M51.9286 91.9289C51.8023 91.4082 51.5518 90.9257 51.1985 90.5227C50.8453 90.1197 50.3998 89.8081 49.9 89.6147C49.5274 89.4157 49.1075 89.3225 48.6857 89.3451C48.2639 89.3678 47.8563 89.5055 47.5072 89.7432C46.6512 89.8962 45.8681 90.3229 45.2756 90.9593C44.683 91.5956 44.3131 92.4071 44.2215 93.2718C43.9786 95.379 46.2429 97.0504 48.2 96.7575C50.8429 96.3575 52.4072 94.6432 51.9286 91.9289Z" fill="#F8F8FA"/>
<path d="M33.1714 75.7135C32.6643 74.6206 30.7 73.5706 29.4857 74.0277C28.5664 74.3403 27.6731 74.7248 26.8143 75.1777C26.3643 75.4349 26.1857 76.1063 26.0214 76.5492C25.7786 77.2063 25.2643 79.1492 26.5357 79.1492C27.3571 79.1492 27.25 77.992 27.1785 77.2277C27.45 76.6135 28.6071 75.942 28.9857 75.692C30.7071 74.542 31.2571 76.2349 32.8428 76.2777C32.9088 76.2775 32.9736 76.26 33.0308 76.227C33.0879 76.194 33.1355 76.1467 33.1687 76.0897C33.2019 76.0326 33.2196 75.9679 33.2201 75.9019C33.2206 75.8359 33.2038 75.771 33.1714 75.7135Z" fill="#858FA9"/>
<path d="M50.2786 88.9569C49.063 88.6094 47.7814 88.5604 46.5429 88.814C44.8286 89.2212 44.6214 90.2426 43.5714 91.4855C42.7431 92.2719 42.0928 93.2267 41.6643 94.2855C41.6079 94.5097 41.5986 94.7433 41.6371 94.9713C41.6755 95.1994 41.7609 95.417 41.8878 95.6103C42.0147 95.8037 42.1803 95.9686 42.3742 96.0946C42.5681 96.2207 42.7861 96.3051 43.0143 96.3426C44.3071 96.4497 45.2143 95.3069 45.8143 94.2997C46.2714 93.5426 46.3286 92.5783 46.6714 91.7712C46.8645 91.4277 47.1278 91.1286 47.444 90.8936C47.7603 90.6585 48.1225 90.4927 48.5071 90.4069C49.2571 90.5355 50.75 91.2355 51.25 90.4069C51.75 89.5783 50.9143 89.164 50.2786 88.9569Z" fill="#DCDDE0"/>
<path d="M192.864 161.136L192.714 160.615C196.798 159.339 200.808 157.842 204.729 156.129L204.943 156.629C201 158.345 196.968 159.849 192.864 161.136Z" fill="white"/>
<path d="M194.307 163.021L194.143 162.506C195.75 161.999 196.914 161.606 198.486 160.985L200.079 160.371C201.872 159.656 204.586 158.635 206.35 157.928L206.557 158.428C204.779 159.142 202.064 160.185 200.272 160.878L198.686 161.492C197.1 162.142 195.922 162.506 194.307 163.021Z" fill="white"/>
<path d="M195.614 165.607L195.357 165.136C197.921 163.847 200.568 162.728 203.279 161.786C204.936 161.164 206.5 160.579 207.879 160L208.086 160.493C206.7 161.079 205.136 161.671 203.471 162.293C200.784 163.227 198.159 164.334 195.614 165.607Z" fill="white"/>
<path d="M197.129 167.414L196.9 166.921C199.536 165.678 203.593 164.064 208.971 162.057L209.157 162.564C203.8 164.542 199.786 166.171 197.129 167.414Z" fill="white"/>
<path d="M198.029 169.206L197.8 168.72C198.743 168.285 199.871 167.82 200.957 167.37C202.043 166.92 203.036 166.513 203.914 166.113L204.136 166.606C203.25 167.006 202.193 167.449 201.164 167.87C200.136 168.292 198.957 168.778 198.029 169.206Z" fill="white"/>
<path d="M205.721 166.078L205.571 165.556C205.957 165.449 206.614 165.228 207.307 164.992C208.244 164.649 209.197 164.356 210.164 164.113L210.257 164.642C209.75 164.735 208.536 165.142 207.457 165.506C206.779 165.713 206.121 165.963 205.721 166.078Z" fill="white"/>
<path d="M199.107 171.099L198.879 170.606C200.571 169.835 203.043 168.921 205.429 168.035C207.507 167.263 209.479 166.528 210.843 165.928L211.057 166.428C209.679 167.028 207.707 167.763 205.614 168.571C203.236 169.421 200.779 170.335 199.107 171.099Z" fill="white"/>
<path d="M123.986 149.714L123.85 149.193C125.121 148.864 126.307 148.478 127.421 148.114C128.536 147.75 129.521 147.4 130.621 147.136C131.336 146.943 132.186 146.736 133.064 146.514C135.464 145.907 138.186 145.221 140.343 144.436L140.529 144.943C138.343 145.736 135.607 146.428 133.193 147.036L130.757 147.657C129.671 147.95 128.664 148.278 127.593 148.621C126.521 148.964 125.271 149.386 123.986 149.714Z" fill="white"/>
<path d="M123.436 151.972L123.357 151.429C126.353 150.74 129.282 149.784 132.107 148.572L132.336 149.058C129.464 150.298 126.485 151.274 123.436 151.972Z" fill="white"/>
<path d="M134.386 148.915L134.314 148.379C135.965 148.065 137.597 147.655 139.2 147.15L140.207 146.857L140.357 147.379L139.35 147.665C137.721 148.178 136.064 148.596 134.386 148.915Z" fill="white"/>
<path d="M123.807 154.215L123.679 153.686C125.107 153.35 127.014 152.665 128.871 152.007C130.457 151.45 131.95 150.922 133.1 150.579C135.336 149.965 137.857 149.236 139.843 148.629L140 149.143C138.007 149.757 135.486 150.486 133.243 151.093C132.114 151.407 130.629 151.929 129.05 152.522C127.179 153.179 125.243 153.865 123.807 154.215Z" fill="white"/>
<path d="M124.886 156.192L124.75 155.671C126.8 155.128 129.357 154.207 131.614 153.4C132.714 153.007 133.757 152.642 134.621 152.35L134.793 152.857C133.914 153.15 132.893 153.521 131.793 153.907C129.529 154.721 126.964 155.642 124.886 156.192Z" fill="white"/>
<path d="M136.386 152.328L136.264 151.799C136.836 151.664 137.407 151.471 137.957 151.285C138.581 151.06 139.218 150.872 139.864 150.721L139.979 151.249C139.351 151.395 138.734 151.579 138.129 151.799C137.564 151.985 136.986 152.185 136.386 152.328Z" fill="white"/>
<path d="M125.5 158.079L125.35 157.557C129.229 156.436 135.35 154.45 139.457 153.064L139.629 153.579C135.571 155 129.407 156.957 125.5 158.079Z" fill="white"/>
<path d="M127.514 159.6L127.343 159.093L128.271 158.779C130.757 157.943 134.521 156.686 136.457 156.293L136.557 156.822C134.657 157.207 130.914 158.464 128.436 159.293L127.514 159.6Z" fill="white"/>
<path d="M200.636 173.436L200.4 172.95C202.243 172.057 204.828 171.057 207.336 170.093C209.128 169.378 210.821 168.75 212.1 168.186L212.314 168.678C211.028 169.25 209.328 169.9 207.528 170.6C205.036 171.557 202.457 172.55 200.636 173.436Z" fill="white"/>
<path d="M142.736 135.879L142.686 135.343C145.072 135.136 147.429 134.714 149.507 134.336C150.893 134.086 152.093 133.864 153.022 133.772C155.784 133.474 158.522 132.98 161.214 132.293L161.35 132.814C158.632 133.502 155.867 133.994 153.079 134.286C152.164 134.379 150.979 134.593 149.607 134.843C147.514 135.243 145.143 135.672 142.736 135.879Z" fill="white"/>
<path d="M163.064 132.551L162.993 132.015L164.843 131.8C166.63 131.643 168.404 131.356 170.15 130.943L170.293 131.465C168.521 131.884 166.721 132.175 164.907 132.336L163.064 132.551Z" fill="white"/>
<path d="M172.236 131.2L172.164 130.671C175.136 130.264 179.678 129.628 182.678 129.143L182.764 129.671C179.786 130.157 175.214 130.8 172.236 131.2Z" fill="white"/>
<path d="M114.786 26.6429L114.686 26.1072C119.757 25.1358 127.057 24.0715 129.171 23.7715L129.25 24.3072C127.15 24.6072 119.864 25.6643 114.786 26.6429Z" fill="white"/>
<path d="M116.214 28.4361L116.107 27.9075C117.6 27.5932 119.529 27.3075 121.571 27.0075C124.786 26.529 128.107 26.029 129.914 25.4004L130.093 25.9075C128.236 26.5575 124.893 27.0575 121.657 27.5361C119.65 27.8575 117.729 28.129 116.214 28.4361Z" fill="white"/>
<path d="M117.293 29.8783L117.236 29.3426C119.663 29.1367 122.059 28.6575 124.379 27.9141L124.557 28.4212C122.199 29.1804 119.762 29.6692 117.293 29.8783Z" fill="white"/>
<path d="M126.657 28.0788L126.579 27.5502C127.2 27.4574 127.764 27.4002 128.314 27.3431C129.295 27.2851 130.265 27.1149 131.207 26.8359L131.379 27.3502C130.394 27.6342 129.38 27.8043 128.357 27.8574C127.829 27.9359 127.264 27.9859 126.657 28.0788Z" fill="white"/>
<path d="M118.314 31.7638L118.2 31.2352C121.129 30.5995 125.286 29.8995 128.629 29.3281L131.693 28.8066L131.786 29.3352L128.721 29.8638C125.386 30.4281 121.214 31.1281 118.314 31.7638Z" fill="white"/>
<path d="M119.15 34.1861L118.979 33.6718C121.504 32.9723 124.081 32.4755 126.686 32.1861C128.688 31.9452 130.677 31.5995 132.643 31.1504L132.779 31.6718C130.784 32.1258 128.767 32.4763 126.736 32.7218C124.173 33.0094 121.636 33.499 119.15 34.1861Z" fill="white"/>
<path d="M120.043 36.5208L119.893 36.0065C120.921 35.7065 121.943 35.478 122.929 35.2922C123.914 35.1065 125.021 34.828 126.093 34.5137L126.214 34.9994C125.129 35.3208 124.071 35.5637 123.014 35.7922C121.957 36.0208 121.057 36.228 120.043 36.5208Z" fill="white"/>
<path d="M120.936 39.579L120.786 39.0647C124.218 38.1769 127.7 37.4947 131.214 37.0218L131.993 36.9004L132.071 37.429L131.293 37.5504C127.803 38.0206 124.345 38.698 120.936 39.579Z" fill="white"/>
<path d="M121.636 41.7424L121.529 41.2138C123.593 40.7924 125.879 40.4281 128.093 40.0709C130.193 39.7281 132.171 39.4138 133.936 39.0566L134.043 39.5852C132.264 39.9424 130.279 40.2638 128.179 40.5995C125.971 40.9566 123.686 41.3209 121.636 41.7424Z" fill="white"/>
<path d="M121.814 43.9005L121.707 43.3719C122.779 43.1505 124.079 42.9219 125.457 42.6576C126.836 42.3934 128.236 42.1648 129.443 41.9434L129.55 42.4719C128.336 42.7219 126.921 42.9719 125.557 43.1862C124.193 43.4005 122.886 43.6791 121.814 43.9005Z" fill="white"/>
<path d="M121.8 46.1503L121.721 45.6218C125.399 45.0666 129.044 44.3179 132.643 43.3789L132.786 43.9003C129.166 44.8416 125.499 45.5926 121.8 46.1503Z" fill="white"/>
<path d="M121.979 48.7571L121.9 48.2286C124.65 47.8214 127.35 47.2071 129.514 46.7143L131.593 46.25L131.707 46.7786L129.636 47.2429C127.457 47.7357 124.786 48.35 121.979 48.7571Z" fill="white"/>
<path d="M119.743 92.5419L119.65 92.0062C121.129 91.7562 122.571 91.5848 123.936 91.4205C125.543 91.2276 127.057 91.049 128.6 90.7562C131.007 90.2919 133.257 89.9491 135.064 89.6776C136.493 89.4562 137.643 89.2848 138.307 89.1348L138.429 89.6633C137.714 89.8133 136.6 89.9919 135.15 90.2133C133.343 90.4848 131.093 90.8276 128.721 91.2848C127.157 91.5848 125.636 91.7633 124.014 91.9562C122.643 92.1419 121.214 92.2919 119.743 92.5419Z" fill="white"/>
<path d="M118.821 94.5219L118.771 93.9862C123.35 93.5219 128.357 92.7647 132.5 91.9219L132.607 92.4504C128.45 93.3004 123.421 94.0576 118.821 94.5219Z" fill="white"/>
<path d="M134.379 92.272L134.321 91.7363C136.421 91.5077 138.75 91.1648 141 90.8291C142.507 90.6006 143.936 90.3863 145.286 90.2148L145.357 90.7434C144.007 90.922 142.586 91.1363 141.071 91.3577C138.821 91.6934 136.486 92.0434 134.379 92.272Z" fill="white"/>
<path d="M116.857 96.7712L116.779 96.2355C118.6 95.9712 120.55 95.7498 122.443 95.5212C125.75 95.1426 129.171 94.7498 131.864 94.1641L131.979 94.6926C129.257 95.2855 125.829 95.6784 122.5 96.0641C120.621 96.2855 118.671 96.5069 116.857 96.7712Z" fill="white"/>
<path d="M114.786 99.1072L114.714 98.5715C119.486 97.9572 124.664 97.3143 129.1 96.7715L129.164 97.3072C124.729 97.8572 119.55 98.4929 114.786 99.1072Z" fill="white"/>
<path d="M130.693 97.0426L130.636 96.4998C132.493 96.3141 134.143 96.0498 135.886 95.7855C137.193 95.5712 138.55 95.3569 140.071 95.1641L140.136 95.6998C138.629 95.8926 137.279 96.1069 135.971 96.3141C134.214 96.5855 132.564 96.8498 130.693 97.0426Z" fill="white"/>
<path d="M133.486 94.4288L133.414 93.9002L135.021 93.6502C136.45 93.4216 138.157 93.1645 139.307 93.0859L139.343 93.6217C138.243 93.7002 136.593 93.9574 135.136 94.1859L133.486 94.4288Z" fill="white"/>
</svg>
