<svg width="24" height="24" viewBox="0 0 24 24" fill="none" xmlns="http://www.w3.org/2000/svg">
<path d="M22.7324 12C21.9799 13.0087 21.3005 14.1278 20.6602 15.1533C19.8578 16.4384 19.112 17.5795 18.2803 18.417C17.9086 18.7913 17.4055 19 16.8828 19L1.00098 19L0.999999 18.999C1.00015 18.9978 1.00091 18.9972 1.00098 18.9971L5.55371 12.5781C5.76859 12.275 5.79589 11.8822 5.63477 11.5566L5.55371 11.4219L1.00098 5.00293C1.0009 5.00282 1.00109 5.00161 1.00098 5L16.8828 5C17.4055 5.00001 17.9086 5.20871 18.2803 5.58301C19.112 6.42049 19.8578 7.56157 20.6602 8.84668C21.3005 9.87222 21.9799 10.9913 22.7324 12Z" fill="#FAEA9C" stroke="#ECBE30" stroke-width="2" stroke-linecap="round" stroke-linejoin="round"/>
</svg>
